<?xml version="1.0" encoding="utf-8"?>
<!-- Generator: Adobe Illustrator 18.0.0, SVG Export Plug-In . SVG Version: 6.00 Build 0)  -->
<!DOCTYPE svg PUBLIC "-//W3C//DTD SVG 1.0//EN" "http://www.w3.org/TR/2001/REC-SVG-20010904/DTD/svg10.dtd">
<svg version="1.0" id="Capa_1" xmlns="http://www.w3.org/2000/svg" xmlns:xlink="http://www.w3.org/1999/xlink" x="0px" y="0px"
	 viewBox="0 0 220 108" enable-background="new 0 0 220 108" xml:space="preserve">
<g id="LOGO_1_">
	<path fill="#00A19A" d="M23.3,56.4c0,0.2,0,0.3-0.1,0.4v0.2c-0.2,0.2-0.2,0.4,0,0.6c-0.2,0.1-0.3,0.2-0.4,0.4
		c-0.1,0.2-0.1,0.3-0.1,0.5c-0.1,0.3-0.2,0.4-0.5,0.4c0,0,0,0.1,0.1,0.1c-0.1,0.1-0.1,0.1-0.2,0.2c0,0.1-0.1,0.1-0.2,0.1
		c-0.2,0.2-0.5,0.3-0.8,0.5c-0.1,0.1-0.2,0.1-0.3,0.1c-0.1,0-0.2,0-0.3,0.1c-0.2,0.1-0.5,0.1-0.9,0.2c-0.3,0.1-0.6,0.1-0.9,0.2
		c-0.3,0.1-0.6,0-0.9-0.1h-0.3c-0.3,0-0.7-0.1-1-0.1c-0.3,0-0.7,0-1-0.1c-0.4-0.1-0.7-0.1-1.1-0.2c-0.4-0.1-0.7-0.2-1.1-0.3
		c-0.4-0.1-0.7-0.3-1.1-0.5c-0.3-0.2-0.7-0.4-1-0.5c-0.4-0.2-0.7-0.4-1.1-0.6c-0.4-0.2-0.7-0.4-1-0.7C9.2,57,9,56.9,8.9,56.7
		c-0.1-0.1-0.2-0.3-0.4-0.5c-0.2-0.2-0.3-0.4-0.5-0.6c-0.1-0.2-0.3-0.4-0.5-0.6c0,0-0.1-0.1-0.1-0.1c0-0.1,0-0.1-0.1-0.1
		c-0.1-0.2-0.2-0.4-0.3-0.5C7.1,54.1,7,54,6.9,53.8c-0.1-0.2-0.2-0.3-0.3-0.5c-0.1-0.1-0.1-0.2-0.1-0.4c0-0.1,0.1-0.3,0.1-0.4
		c0-0.2-0.1-0.3-0.2-0.4c0-0.1-0.1-0.1-0.2-0.1c-0.1,0-0.2,0-0.2-0.1C6,51.9,6,51.8,6,51.7c0-0.1,0-0.2-0.1-0.3
		c0-0.1-0.1-0.1-0.1-0.2c0-0.1,0-0.1-0.1-0.2l-0.1-0.1c-0.1-0.2-0.1-0.5-0.2-0.7c0-0.2-0.1-0.4-0.2-0.6c0-0.1,0-0.2,0-0.3
		c0-0.1,0-0.2-0.1-0.3V49c0-0.2,0-0.4,0-0.6c0-0.2,0-0.4,0.1-0.6l0.1-0.1v0.8h0.1c0-0.1,0.1-0.1,0.1-0.1c0,0,0.1-0.1,0.1-0.1
		c0-0.2-0.1-0.3-0.1-0.5c0-0.2-0.1-0.3-0.2-0.4c0-0.1-0.1-0.1-0.1-0.2c0-0.1-0.1-0.1-0.1-0.2c0-0.1,0-0.3,0-0.4c0-0.1,0-0.2,0.1-0.3
		c0.1-0.2,0-0.3-0.1-0.5v-0.1l0.1,0.1c0-0.1,0-0.1,0-0.2c0-0.1,0-0.2,0-0.2c0-0.1-0.1-0.3-0.1-0.4c0-0.1,0-0.3-0.1-0.4
		c-0.2-0.3-0.3-0.7-0.3-1c0-0.3,0-0.7-0.1-1.1c0-0.1,0-0.2,0.1-0.3c0-0.1,0.1-0.2,0.1-0.3c0-0.1,0-0.2,0-0.3c0-0.1,0-0.2,0-0.3
		c0,0,0-0.2,0.1-0.6c0-0.4,0.1-0.8,0.1-1.3c0.1-0.5,0.1-0.9,0.1-1.3c0-0.4,0.1-0.6,0.1-0.7c0-0.2,0-0.3,0-0.4c0-0.1,0-0.3,0-0.4
		c0-0.4,0.1-0.8,0.1-1.2c0-0.4,0-0.8,0-1.1c0-0.2,0-0.5,0-1c0-0.5,0-1,0-1.5c0-0.5,0-1,0-1.5c0-0.5,0.1-0.8,0.1-0.9
		c0.1-0.4,0.2-0.9,0.2-1.3c0.1-0.4,0.1-0.8,0.2-1.3c0.1-0.2,0.1-0.4,0.1-0.6c0-0.2,0-0.4,0-0.7c0,0,0.1,0.1,0.2,0.1
		c0.3,0.2,0.7,0.3,1,0.5c0.3,0.2,0.6,0.3,1,0.4c0.4,0.2,0.7,0.4,1,0.7c0.1,0.1,0.2,0.2,0.3,0.3c0.1,0.1,0.2,0.2,0.4,0.2
		c0.2,0.2,0.3,0.4,0.3,0.7c0,0.2,0,0.5,0,0.9c0,0.4,0,0.9,0.1,1.4c0,0.5,0,1,0,1.4c0,0.4,0,0.7,0,0.9c0,0.3,0,0.5,0,0.8
		c0,0.2,0,0.5-0.1,0.8c0,0.1-0.1,0.1-0.1,0.2c0,0.1-0.1,0.1-0.1,0.2c0.1,0,0.1-0.1,0.2-0.1c0.1,0,0.1,0,0.2-0.1
		c0,0.2,0.1,0.3,0.1,0.4s0,0.2,0,0.4c0,0.1,0.1,0.3,0.1,0.4c0,0.1,0,0.3,0.1,0.4c0,0.1,0,0.4-0.1,0.8c0,0.4-0.1,0.9-0.1,1.4
		c0,0.5,0,1-0.1,1.4c0,0.4-0.1,0.7-0.1,0.8v1.8c0,0.1,0,0.3-0.1,0.4c0,0.1-0.1,0.3-0.1,0.4c0,0.1,0,0.2,0,0.3c0,0.1,0.1,0.1,0.3,0.2
		c0.1,0,0.1,0.1,0.1,0.2c0,0.2,0.1,0.4,0.1,0.6c0,0.2,0,0.4-0.2,0.6c0,0,0,0.1,0,0.1c0,0,0.1,0.1,0.1,0.2c0,0.2,0.1,0.4,0.1,0.6
		c0,0.2,0,0.4,0.1,0.6c0.1,0.2,0.1,0.4,0.2,0.6c0.1,0.2,0.1,0.4,0,0.7V48c0,0,0,0.1,0.1,0.1c0.1,0,0.2,0.1,0.2,0.2
		c0,0.1,0,0.2,0.1,0.3c0.1,0.2,0.1,0.4,0.2,0.5c0.2,0.4,0.3,0.9,0.2,1.5V51c0,0,0,0.1,0.1,0.1c0.2,0.1,0.3,0.3,0.3,0.5
		c0.1,0.2,0.1,0.4,0.2,0.6c0,0.5,0.3,1,0.7,1.4c0.1,0.1,0.2,0.3,0.3,0.4c0.1,0.1,0.2,0.3,0.3,0.4c0.2,0.3,0.4,0.5,0.7,0.7
		c0.3,0.2,0.6,0.3,0.9,0.4c0.1,0.1,0.3,0.1,0.4,0.2c0.1,0.1,0.3,0.1,0.4,0.2c0.2,0.1,0.3,0.1,0.5,0.1c0.1,0,0.3,0,0.5,0.1
		c0.3,0.1,0.5,0.1,0.7,0.1c0.2,0,0.4,0,0.6,0c0.2,0,0.4,0,0.6-0.1c0.3,0,0.5-0.1,0.8-0.1c0.3,0,0.5-0.1,0.8-0.1
		c0.2,0,0.3-0.1,0.5-0.1c0.2,0,0.4-0.1,0.5-0.1c0.5,0,1,0.1,1.5,0.2c0.1,0,0.2,0.1,0.3,0.2C23.1,56.2,23.2,56.3,23.3,56.4z
		 M5.7,33.9c0,0,0.1,0.1,0.1,0.1c0.1-0.1,0.1-0.1,0.2-0.1c0.1,0,0.1-0.1,0.1-0.1v-0.4H5.8C6,33.6,6,33.7,5.9,33.8
		C5.8,33.8,5.8,33.9,5.7,33.9z M5.9,35.7c0,0.1-0.1,0.3-0.1,0.4c0,0.1,0,0.2-0.1,0.4c0,0.1,0,0.1,0,0.2c0,0.1,0,0.1,0,0.2
		c0,0,0.1,0.1,0.1,0.1c0,0,0,0,0.1,0.1c0.1-0.1,0.1-0.1,0.1-0.2c0.1-0.2,0.1-0.4,0-0.7C6.1,35.8,6,35.7,5.9,35.7z M6.7,28.3
		c0,0,0.1,0,0.1,0.1c0-0.1,0-0.3,0.1-0.4c0,0-0.1,0-0.1,0c0,0,0,0-0.1,0H6.7C6.6,28,6.6,28.1,6.7,28.3z M8.9,45.2
		c0,0,0.1-0.1,0.1-0.1c0-0.1,0-0.2,0-0.3c0-0.1,0-0.2,0-0.3c0-0.1-0.1-0.1-0.2-0.2c-0.1-0.1-0.2-0.1-0.3-0.1
		c0.1,0.1,0.2,0.3,0.2,0.5C8.7,44.9,8.8,45.1,8.9,45.2z M10.9,48.5v-0.2c-0.1,0-0.2,0-0.3-0.1v0.3C10.7,48.6,10.8,48.5,10.9,48.5z"
		/>
	<path fill="#00A19A" d="M54.1,52.5c0,0.1-0.1,0.3-0.1,0.4c0,0.1,0,0.3,0,0.4v0.1c0,0.1,0,0.3,0,0.4v0.3v0.3c-0.1,0.2-0.1,0.4,0,0.6
		v0c-0.1,0.2-0.1,0.4-0.2,0.6c0,0.2-0.1,0.4-0.2,0.6c0,0.1,0,0.1-0.1,0.1c0,0-0.1,0.1-0.1,0.1c-0.1,0.1-0.2,0.2-0.2,0.2
		c0,0.2,0,0.3-0.1,0.4c-0.1,0.1-0.1,0.3-0.1,0.4c0,0.1-0.1,0.3-0.3,0.4c-0.1,0-0.2,0.1-0.3,0.3c0,0,0,0.1,0.1,0.2
		c-0.2,0.2-0.3,0.3-0.5,0.3c-0.1,0-0.1,0-0.2,0l-0.2,0.1c-0.1,0.1-0.2,0.1-0.3,0c-0.1,0-0.1,0.1-0.2,0.1c0,0.1-0.1,0.1-0.2,0
		c-0.1,0-0.1,0-0.2,0.1c-0.1,0-0.1,0.1-0.2,0.1c-0.3,0-0.6,0-0.8,0c-0.3,0.1-0.4,0.1-0.5,0.1c-0.1,0-0.1,0-0.2,0c0,0-0.1,0-0.2,0
		l-0.8-0.3c-0.2-0.2-0.3-0.3-0.3-0.5c0-0.2-0.1-0.4-0.2-0.6c-0.1-0.3-0.1-0.5-0.1-0.6c-0.1-0.3-0.1-0.5-0.2-0.8
		c0-0.3-0.1-0.5-0.1-0.8c0-0.1-0.1-0.1-0.1-0.2v-0.3c-0.1-0.3-0.2-0.7-0.2-1c0-0.3,0-0.7-0.1-1.1c0-0.2,0-0.3,0-0.5
		c0-0.2,0-0.3,0-0.5v-0.3v-0.6c0-0.4,0-0.7,0-1.1c0-0.4,0-0.7,0.1-1.1v-0.7c0-0.3,0-0.5,0-0.8c0-0.2,0-0.5,0.1-0.8
		c0-0.3,0-0.5,0-0.7c0-0.2,0-0.5,0.1-0.7c0-0.3,0.1-0.7,0.1-1c0-0.3,0.1-0.6,0.1-1c0-0.2,0-0.5,0.1-0.8l0.2-0.9
		c0-0.2,0.1-0.4,0.1-0.6c0-0.2,0-0.4,0.1-0.5c0-0.1,0-0.2,0-0.3c0-0.1,0-0.2,0-0.2l0.2-1.2c0-0.1,0-0.1-0.1-0.2
		c0-0.1-0.1-0.1-0.1-0.2C48,38.8,48,38.8,48,38.7c0,0,0.1-0.1,0.1-0.1c0,0,0.1,0,0.1-0.1c0.1-0.1,0.1-0.1,0.2-0.1h0.1
		c0.1-0.2,0.3-0.2,0.4-0.2c0.1,0,0.2,0.1,0.4,0.1c0.2,0,0.4,0.1,0.8,0.2c0.2,0,0.5,0.1,0.8,0.2l0.1,0c0.3,0.2,0.5,0.4,0.7,0.6
		c0.1,0.1,0.1,0.3,0.2,0.4c0.1,0.1,0.1,0.2,0.2,0.4c-0.1,0.2-0.2,0.3-0.2,0.3c0,0.1,0.2,0.1,0.4,0.2c0,0.1,0,0.1,0,0.2
		c0,0.1,0,0.2,0,0.2c0,0.1,0.1,0.1,0.1,0.2c0,0.1,0,0.1,0.1,0.2c0.1,0.1,0.1,0.1,0,0.2c0,0.2,0.1,0.2,0.2,0.2
		c0.1,0.1,0.1,0.1,0.1,0.2c0.1,0.2,0.1,0.3,0.1,0.5c0,0.1,0,0.3,0.1,0.5c0,0.1,0.1,0.2,0.1,0.3c0,0.1,0,0.2,0.1,0.3
		C53,44,53,44.3,53,44.6c0.1,0.3,0.2,0.6,0.2,1c0,0.1,0,0.1,0,0.1c0,0,0,0.1,0,0.1c0,0.2,0,0.4,0.1,0.7c0,0.1,0,0.1,0,0.1
		c0,0,0,0.1,0,0.1c0,0.1,0.1,0.2,0.1,0.3c0,0.1,0,0.2,0.1,0.3c0.1,0.2,0.1,0.4,0.2,0.6c0,0.2,0.1,0.4,0.1,0.6c0,0.1,0,0.2,0.1,0.3
		c0.1,0.2,0.1,0.4,0.1,0.5c0,0,0,0.1,0,0.1c0,0,0,0.1,0,0.1c0,0.1,0.1,0.2,0.1,0.3c0,0.1,0,0.2-0.1,0.3v0.1c0.1,0.1,0.1,0.2,0.1,0.3
		c0,0.1,0,0.2-0.1,0.3c0,0.1,0,0.2,0.1,0.3c0,0.1,0,0.2,0,0.3c0,0.1,0,0.2-0.1,0.3v0.1C54,52.4,54,52.5,54.1,52.5
		C54.1,52.5,54.1,52.5,54.1,52.5z"/>
	<path fill="#00A19A" d="M79.3,33v-0.3c0.2,0,0.3-0.1,0.4-0.3c0-0.2,0.1-0.3,0.1-0.4c0-0.1-0.1-0.2-0.2-0.4
		c-0.1-0.2-0.1-0.4-0.1-0.6c0-0.2,0.1-0.3,0.2-0.4c0.1-0.1,0.1-0.2,0.1-0.4c0,0,0-0.1,0.1-0.1c0.1-0.1,0.1-0.2,0.1-0.4
		c0-0.1,0-0.3,0-0.4c0-0.1,0-0.2-0.1-0.4v-0.1c0.1-0.1,0.1-0.2,0.1-0.3c0-0.1,0-0.2,0.1-0.3c0,0,0.1-0.1,0.1-0.2
		c0-0.2,0-0.5,0.2-0.7c0.1-0.1,0.1-0.3,0.2-0.4c0.1-0.3,0.3-0.5,0.5-0.7c0.2-0.2,0.5-0.3,0.8-0.4c0.2-0.1,0.4-0.1,0.6-0.2
		c0.2-0.1,0.4-0.1,0.6-0.2c0.2-0.1,0.5-0.1,0.7-0.1c0.2,0,0.4,0,0.6-0.1c0.1,0,0.2,0,0.3,0c0.1,0,0.2,0,0.3,0.1c0.1,0,0.2,0,0.3,0
		c0.1,0,0.2,0,0.3,0.1c0.1,0,0.2,0.1,0.3,0.1c0.1,0,0.2,0,0.3,0.1l1.1,0.5c0.2,0.1,0.3,0.1,0.5,0.2c0.1,0.1,0.3,0.1,0.5,0.2
		c0.2,0.1,0.3,0.2,0.4,0.3c0.1,0.1,0.3,0.2,0.4,0.2c0,0,0.1,0,0.1,0c0,0,0,0,0.1,0c0.2,0.2,0.4,0.4,0.6,0.6c0.2,0.2,0.4,0.4,0.6,0.6
		c0.2,0.2,0.4,0.4,0.6,0.5c0.1,0.1,0.1,0.1,0.2,0.2c0.1,0,0.1,0.1,0.2,0.2l0.8,0.9l0.3,0.5c0.1,0.1,0.2,0.3,0.3,0.4
		c0.1,0.1,0.1,0.2,0.1,0.4c0,0,0.1,0.1,0.1,0.1c0.1,0.1,0.2,0.2,0.2,0.4v0.3c0.1,0.3,0.1,0.5,0.1,0.7V33c0,0.2,0,0.3,0,0.5
		c0,0.2,0,0.3,0,0.5v0.1c-0.1,0.2-0.1,0.3-0.2,0.5c0,0.2-0.1,0.3-0.1,0.5c0,0.1,0,0.1-0.1,0.2c-0.1,0.1-0.1,0.2-0.1,0.3
		c0,0.1,0,0.2-0.1,0.3c-0.1,0.2-0.2,0.3-0.2,0.5c-0.1,0.2-0.1,0.3-0.3,0.5c0,0-0.1,0.1-0.1,0.2c0,0.1-0.1,0.1-0.1,0.2
		c0,0.1,0,0.1-0.1,0.2c-0.1,0.2-0.2,0.3-0.3,0.5c-0.1,0.2-0.2,0.3-0.3,0.5c0,0.1-0.1,0.1-0.1,0.2c0,0.1-0.1,0.2-0.1,0.2
		c-0.1,0.1-0.2,0.2-0.3,0.2c-0.3,0-0.5,0.2-0.6,0.5c0,0.1-0.1,0.2-0.2,0.3c-0.1,0-0.2,0.1-0.2,0.2v0.2c-0.1,0.1-0.1,0.1-0.1,0.2
		c0,0.1-0.1,0.2-0.1,0.2c0,0.1-0.1,0.1-0.3,0.1c-0.1,0-0.2,0.1-0.3,0.2l-0.5,0.6c0,0-0.1,0.1-0.1,0.1c0,0-0.1,0-0.1,0.1
		C88,41.8,88,41.8,88,41.8c0,0.1-0.1,0.3-0.3,0.4c-0.1,0.1-0.1,0.3,0.1,0.4h0.1c0.3,0.1,0.5,0.3,0.8,0.4c0.2,0.1,0.5,0.2,0.8,0.4
		c0.1,0.1,0.3,0.1,0.4,0.2c0.2,0.1,0.3,0.2,0.3,0.4c0,0.1,0.1,0.2,0.2,0.2c0.1,0,0.1,0.1,0.2,0.1c0.1,0.1,0.1,0.1,0.2,0.2
		c0.1,0.1,0.1,0.1,0.2,0.2c0.1,0,0.1,0.1,0.2,0.2c0.1,0.1,0.1,0.1,0.2,0.2c0.1,0.1,0.1,0.1,0.2,0.2c0.1,0.3,0.3,0.6,0.6,0.8
		c0.2,0.2,0.3,0.4,0.4,0.6c0.1,0.2,0.2,0.4,0.4,0.6c0,0.1,0.1,0.3,0.3,0.4c0.2,0.1,0.3,0.3,0.3,0.5c0,0.1,0.1,0.2,0.1,0.3
		c0,0.1,0.1,0.2,0.1,0.3c0.1,0.1,0.1,0.3,0.1,0.4c-0.1,0.2-0.1,0.3-0.1,0.5c0,0.1,0.1,0.3,0.1,0.5c0,0.2,0,0.3-0.1,0.4
		c-0.1,0.1-0.1,0.3-0.2,0.4c0,0.1,0,0.3,0.1,0.5c0,0.1,0,0.2-0.1,0.3c0,0,0,0.1,0,0.1c0,0,0,0.1,0,0.1c0,0.1,0,0.2-0.1,0.4
		c-0.1,0.1-0.1,0.1-0.1,0.2c-0.1,0.4-0.2,0.8-0.3,1.2c-0.1,0.2-0.2,0.4-0.3,0.4c-0.2,0.1-0.3,0.3-0.3,0.5c0,0.1,0,0.3-0.1,0.6
		c-0.1,0.1-0.1,0.2-0.1,0.3c-0.1,0.2-0.2,0.3-0.3,0.4c-0.1,0.1-0.1,0.2-0.2,0.3C92.1,55.7,92,55.8,92,56c0,0.1-0.1,0.3-0.3,0.5
		c-0.1,0-0.1,0.1-0.1,0.1c0,0-0.1,0.1-0.1,0.2c-0.1,0.1-0.1,0.1-0.2,0.2c0,0.1-0.1,0.1-0.2,0.2c0,0-0.1,0.1-0.1,0.1
		c0,0,0,0.1-0.1,0.1c-0.1,0.1-0.1,0.3-0.2,0.4c-0.1,0.1-0.1,0.2-0.3,0.3c0,0-0.1,0-0.2,0.1c-0.1,0.1-0.2,0.2-0.5,0.3
		c-0.1,0-0.1,0-0.2,0.1c-0.1,0.1-0.1,0.1-0.2,0.2c-0.1,0.1-0.2,0.1-0.3,0.2c-0.1,0.1-0.2,0.2-0.3,0.3c0,0-0.1,0-0.1,0c0,0,0,0-0.1,0
		c-0.3,0.1-0.4,0.3-0.5,0.4c-0.1,0.1-0.3,0.2-0.4,0.3c-0.1,0-0.3,0.1-0.4,0.1h-1.1c-0.4,0-0.7-0.2-0.8-0.6v-0.1
		c-0.2,0-0.3-0.1-0.4-0.1c-0.1,0-0.2,0-0.4-0.1c-0.1,0-0.3,0-0.4,0.1l-0.3,0.2c-0.2,0-0.4,0-0.6,0.1c-0.2,0.1-0.4,0.1-0.6-0.2
		l-0.2-0.2c-0.1-0.1-0.1-0.1-0.1-0.2c0-0.1-0.1-0.1-0.1-0.2c-0.1-0.1-0.1-0.1-0.1-0.2c0,0-0.1-0.1-0.1-0.2c0-0.1-0.1-0.1-0.1-0.1
		c0,0-0.1-0.1-0.1-0.1C82,58,82,57.9,82,57.7c0-0.2-0.1-0.3-0.1-0.5c-0.1-0.3-0.1-0.5-0.2-0.8c-0.1-0.3-0.1-0.5-0.2-0.8
		c-0.1-0.2-0.1-0.4-0.2-0.5c0-0.1-0.1-0.3-0.3-0.6v-0.1c0-0.3-0.1-0.6-0.2-0.9c-0.1-0.2-0.1-0.4-0.2-0.6c0-0.2-0.1-0.4-0.2-0.6
		c-0.1-0.1-0.1-0.3-0.2-0.4c-0.1-0.1-0.1-0.1-0.1-0.2c0-0.1,0-0.1-0.1-0.2c0-0.1-0.1-0.3-0.1-0.5c0-0.1,0-0.3,0-0.4
		c0-0.1,0-0.3,0-0.4c0.1-0.2,0.1-0.3,0.1-0.5c0-0.1,0-0.3,0-0.5c0-0.3,0-0.6,0-0.9c0-0.3,0-0.6,0-0.9c0-0.1,0-0.2-0.1-0.3
		c-0.1-0.2-0.1-0.3-0.2-0.5c-0.1-0.1-0.1-0.3,0-0.5c0-0.1,0-0.1-0.1-0.2c-0.1-0.3-0.1-0.5-0.1-0.6v-0.4c-0.1-0.3-0.1-0.6,0-1
		c0.1-0.3,0-0.5-0.2-0.8c-0.1-0.1-0.1-0.1-0.1-0.2c0-0.1,0.1-0.2,0.1-0.3s0-0.2,0.1-0.3c0.1-0.1,0.1-0.1,0.2-0.2
		c-0.1-0.2-0.1-0.4,0-0.5c0,0,0.1,0,0.1-0.1v-0.1v-0.7V41v-0.6c0-0.2,0.1-0.5,0.1-0.7c0-0.2,0-0.5,0.1-0.7c0-0.1,0-0.2-0.1-0.3
		c-0.1-0.1-0.1-0.3-0.1-0.5c0-0.1-0.1-0.2-0.2-0.2c0,0-0.1-0.1-0.1-0.3c0-0.2,0-0.3,0-0.5c0-0.2,0-0.4,0-0.7c0-0.2,0-0.4,0-0.5
		c0-0.1,0-0.1,0-0.2c0,0,0-0.1,0-0.2c0-0.1,0-0.2,0-0.5c0,0,0,0,0-0.1c0-0.1,0-0.1,0-0.1v-1.3c0-0.1,0-0.1,0.1-0.2
		c0.1-0.1,0.1-0.2-0.1-0.3L79.3,33z M79.3,33v-0.3c0.2,0,0.3-0.1,0.4-0.3c0-0.2,0.1-0.3,0.1-0.4c0-0.1-0.1-0.2-0.2-0.4
		c-0.1-0.2-0.1-0.4-0.1-0.6c0-0.2,0.1-0.3,0.2-0.4c0.1-0.1,0.1-0.2,0.1-0.4c0,0,0-0.1,0.1-0.1c0.1-0.1,0.1-0.2,0.1-0.4
		c0-0.1,0-0.3,0-0.4c0-0.1,0-0.2-0.1-0.4v-0.1c0.1-0.1,0.1-0.2,0.1-0.3c0-0.1,0-0.2,0.1-0.3c0,0,0.1-0.1,0.1-0.2
		c0-0.2,0-0.5,0.2-0.7c0.1-0.1,0.1-0.3,0.2-0.4c0.1-0.3,0.3-0.5,0.5-0.7c0.2-0.2,0.5-0.3,0.8-0.4c0.2-0.1,0.4-0.1,0.6-0.2
		c0.2-0.1,0.4-0.1,0.6-0.2c0.2-0.1,0.5-0.1,0.7-0.1c0.2,0,0.4,0,0.6-0.1c0.1,0,0.2,0,0.3,0c0.1,0,0.2,0,0.3,0.1c0.1,0,0.2,0,0.3,0
		c0.1,0,0.2,0,0.3,0.1c0.1,0,0.2,0.1,0.3,0.1c0.1,0,0.2,0,0.3,0.1l1.1,0.5c0.2,0.1,0.3,0.1,0.5,0.2c0.1,0.1,0.3,0.1,0.5,0.2
		c0.2,0.1,0.3,0.2,0.4,0.3c0.1,0.1,0.3,0.2,0.4,0.2c0,0,0.1,0,0.1,0c0,0,0,0,0.1,0c0.2,0.2,0.4,0.4,0.6,0.6c0.2,0.2,0.4,0.4,0.6,0.6
		c0.2,0.2,0.4,0.4,0.6,0.5c0.1,0.1,0.1,0.1,0.2,0.2c0.1,0,0.1,0.1,0.2,0.2l0.8,0.9l0.3,0.5c0.1,0.1,0.2,0.3,0.3,0.4
		c0.1,0.1,0.1,0.2,0.1,0.4c0,0,0.1,0.1,0.1,0.1c0.1,0.1,0.2,0.2,0.2,0.4v0.3c0.1,0.3,0.1,0.5,0.1,0.7V33c0,0.2,0,0.3,0,0.5
		c0,0.2,0,0.3,0,0.5v0.1c-0.1,0.2-0.1,0.3-0.2,0.5c0,0.2-0.1,0.3-0.1,0.5c0,0.1,0,0.1-0.1,0.2c-0.1,0.1-0.1,0.2-0.1,0.3
		c0,0.1,0,0.2-0.1,0.3c-0.1,0.2-0.2,0.3-0.2,0.5c-0.1,0.2-0.1,0.3-0.3,0.5c0,0-0.1,0.1-0.1,0.2c0,0.1-0.1,0.1-0.1,0.2
		c0,0.1,0,0.1-0.1,0.2c-0.1,0.2-0.2,0.3-0.3,0.5c-0.1,0.2-0.2,0.3-0.3,0.5c0,0.1-0.1,0.1-0.1,0.2c0,0.1-0.1,0.2-0.1,0.2
		c-0.1,0.1-0.2,0.2-0.3,0.2c-0.3,0-0.5,0.2-0.6,0.5c0,0.1-0.1,0.2-0.2,0.3c-0.1,0-0.2,0.1-0.2,0.2v0.2c-0.1,0.1-0.1,0.1-0.1,0.2
		c0,0.1-0.1,0.2-0.1,0.2c0,0.1-0.1,0.1-0.3,0.1c-0.1,0-0.2,0.1-0.3,0.2l-0.5,0.6c0,0-0.1,0.1-0.1,0.1c0,0-0.1,0-0.1,0.1
		C88,41.8,88,41.8,88,41.8c0,0.1-0.1,0.3-0.3,0.4c-0.1,0.1-0.1,0.3,0.1,0.4h0.1c0.3,0.1,0.5,0.3,0.8,0.4c0.2,0.1,0.5,0.2,0.8,0.4
		c0.1,0.1,0.3,0.1,0.4,0.2c0.2,0.1,0.3,0.2,0.3,0.4c0,0.1,0.1,0.2,0.2,0.2c0.1,0,0.1,0.1,0.2,0.1c0.1,0.1,0.1,0.1,0.2,0.2
		c0.1,0.1,0.1,0.1,0.2,0.2c0.1,0,0.1,0.1,0.2,0.2c0.1,0.1,0.1,0.1,0.2,0.2c0.1,0.1,0.1,0.1,0.2,0.2c0.1,0.3,0.3,0.6,0.6,0.8
		c0.2,0.2,0.3,0.4,0.4,0.6c0.1,0.2,0.2,0.4,0.4,0.6c0,0.1,0.1,0.3,0.3,0.4c0.2,0.1,0.3,0.3,0.3,0.5c0,0.1,0.1,0.2,0.1,0.3
		c0,0.1,0.1,0.2,0.1,0.3c0.1,0.1,0.1,0.3,0.1,0.4c-0.1,0.2-0.1,0.3-0.1,0.5c0,0.1,0.1,0.3,0.1,0.5c0,0.2,0,0.3-0.1,0.4
		c-0.1,0.1-0.1,0.3-0.2,0.4c0,0.1,0,0.3,0.1,0.5c0,0.1,0,0.2-0.1,0.3c0,0,0,0.1,0,0.1c0,0,0,0.1,0,0.1c0,0.1,0,0.2-0.1,0.4
		c-0.1,0.1-0.1,0.1-0.1,0.2c-0.1,0.4-0.2,0.8-0.3,1.2c-0.1,0.2-0.2,0.4-0.3,0.4c-0.2,0.1-0.3,0.3-0.3,0.5c0,0.1,0,0.3-0.1,0.6
		c-0.1,0.1-0.1,0.2-0.1,0.3c-0.1,0.2-0.2,0.3-0.3,0.4c-0.1,0.1-0.1,0.2-0.2,0.3C92.1,55.7,92,55.8,92,56c0,0.1-0.1,0.3-0.3,0.5
		c-0.1,0-0.1,0.1-0.1,0.1c0,0-0.1,0.1-0.1,0.2c-0.1,0.1-0.1,0.1-0.2,0.2c0,0.1-0.1,0.1-0.2,0.2c0,0-0.1,0.1-0.1,0.1
		c0,0,0,0.1-0.1,0.1c-0.1,0.1-0.1,0.3-0.2,0.4c-0.1,0.1-0.1,0.2-0.3,0.3c0,0-0.1,0-0.2,0.1c-0.1,0.1-0.2,0.2-0.5,0.3
		c-0.1,0-0.1,0-0.2,0.1c-0.1,0.1-0.1,0.1-0.2,0.2c-0.1,0.1-0.2,0.1-0.3,0.2c-0.1,0.1-0.2,0.2-0.3,0.3c0,0-0.1,0-0.1,0c0,0,0,0-0.1,0
		c-0.3,0.1-0.4,0.3-0.5,0.4c-0.1,0.1-0.3,0.2-0.4,0.3c-0.1,0-0.3,0.1-0.4,0.1h-1.1c-0.4,0-0.7-0.2-0.8-0.6v-0.1
		c-0.2,0-0.3-0.1-0.4-0.1c-0.1,0-0.2,0-0.4-0.1c-0.1,0-0.3,0-0.4,0.1l-0.3,0.2c-0.2,0-0.4,0-0.6,0.1c-0.2,0.1-0.4,0.1-0.6-0.2
		l-0.2-0.2c-0.1-0.1-0.1-0.1-0.1-0.2c0-0.1-0.1-0.1-0.1-0.2c-0.1-0.1-0.1-0.1-0.1-0.2c0,0-0.1-0.1-0.1-0.2c0-0.1-0.1-0.1-0.1-0.1
		c0,0-0.1-0.1-0.1-0.1C82,58,82,57.9,82,57.7c0-0.2-0.1-0.3-0.1-0.5c-0.1-0.3-0.1-0.5-0.2-0.8c-0.1-0.3-0.1-0.5-0.2-0.8
		c-0.1-0.2-0.1-0.4-0.2-0.5c0-0.1-0.1-0.3-0.3-0.6v-0.1c0-0.3-0.1-0.6-0.2-0.9c-0.1-0.2-0.1-0.4-0.2-0.6c0-0.2-0.1-0.4-0.2-0.6
		c-0.1-0.1-0.1-0.3-0.2-0.4c-0.1-0.1-0.1-0.1-0.1-0.2c0-0.1,0-0.1-0.1-0.2c0-0.1-0.1-0.3-0.1-0.5c0-0.1,0-0.3,0-0.4
		c0-0.1,0-0.3,0-0.4c0.1-0.2,0.1-0.3,0.1-0.5c0-0.1,0-0.3,0-0.5c0-0.3,0-0.6,0-0.9c0-0.3,0-0.6,0-0.9c0-0.1,0-0.2-0.1-0.3
		c-0.1-0.2-0.1-0.3-0.2-0.5c-0.1-0.1-0.1-0.3,0-0.5c0-0.1,0-0.1-0.1-0.2c-0.1-0.3-0.1-0.5-0.1-0.6v-0.4c-0.1-0.3-0.1-0.6,0-1
		c0.1-0.3,0-0.5-0.2-0.8c-0.1-0.1-0.1-0.1-0.1-0.2c0-0.1,0.1-0.2,0.1-0.3s0-0.2,0.1-0.3c0.1-0.1,0.1-0.1,0.2-0.2
		c-0.1-0.2-0.1-0.4,0-0.5c0,0,0.1,0,0.1-0.1v-0.1v-0.7V41v-0.6c0-0.2,0.1-0.5,0.1-0.7c0-0.2,0-0.5,0.1-0.7c0-0.1,0-0.2-0.1-0.3
		c-0.1-0.1-0.1-0.3-0.1-0.5c0-0.1-0.1-0.2-0.2-0.2c0,0-0.1-0.1-0.1-0.3c0-0.2,0-0.3,0-0.5c0-0.2,0-0.4,0-0.7c0-0.2,0-0.4,0-0.5
		c0-0.1,0-0.1,0-0.2c0,0,0-0.1,0-0.2c0-0.1,0-0.2,0-0.5c0,0,0,0,0-0.1c0-0.1,0-0.1,0-0.1v-1.3c0-0.1,0-0.1,0.1-0.2
		c0.1-0.1,0.1-0.2-0.1-0.3L79.3,33z M83.2,37.5l0.1,0.1c0.1,0.3,0.2,0.5,0.1,0.6c-0.1,0.1-0.1,0.2-0.1,0.3c0,0.1,0,0.2,0,0.3
		c0.1,0.2,0.2,0.3,0.3,0.2c0.2-0.1,0.4-0.1,0.5-0.2c0.3-0.3,0.6-0.5,0.8-0.8c0.3-0.3,0.6-0.5,0.8-0.8c0.1-0.1,0.1-0.1,0.1-0.2
		c0,0,0.1-0.1,0.1-0.2c0.1-0.1,0.1-0.2,0.2-0.3c0-0.1,0.1-0.2,0.2-0.3c0.2-0.3,0.3-0.5,0.4-0.7c0,0,0-0.1,0.1-0.2
		c0.1-0.2,0.2-0.3,0.3-0.5c0.1-0.2,0.2-0.4,0.3-0.5c0.1-0.2,0.2-0.4,0.3-0.6c0.1-0.2,0.2-0.4,0.3-0.6c0.1-0.2,0.2-0.4,0.2-0.6
		c0.1-0.2,0.1-0.4,0.2-0.6c0.1-0.3,0.1-0.6,0.1-0.8c0-0.3,0-0.6,0-0.8c0-0.1,0-0.2-0.1-0.4c-0.1-0.2-0.3-0.3-0.4-0.4
		c-0.1-0.1-0.2-0.3-0.4-0.4c-0.2-0.1-0.3-0.3-0.5-0.4c-0.1-0.1-0.3-0.2-0.4-0.4c-0.2-0.2-0.5-0.3-0.7-0.4c-0.2-0.1-0.5-0.2-0.8-0.1
		c-0.1,0-0.3,0-0.4,0c-0.1,0-0.2,0-0.4,0c0,0-0.1,0-0.1,0c0,0-0.1,0-0.1,0c-0.2,0.1-0.3,0.2-0.4,0.3c-0.1,0.2-0.1,0.3-0.2,0.5
		c-0.1,0.2-0.1,0.4-0.2,0.5c-0.1,0.2-0.1,0.5-0.2,0.6c-0.1,0.2-0.1,0.4-0.2,0.6c0,0,0,0.1-0.1,0.3c-0.1,0.1-0.2,0.3-0.2,0.5v0.2
		C83,31.6,83,31.8,83,32.1c0,0.2,0.1,0.3,0.1,0.5c0,0.2,0,0.4-0.1,0.6v0.2c0,0.1,0.1,0.2,0.1,0.3c0,0.1,0,0.2,0.1,0.3
		c0,0.1,0,0.2,0.1,0.2c0,0.2,0.1,0.4,0.2,0.7c0,0.1,0.1,0.3,0.1,0.4c0,0.1,0,0.3-0.1,0.4v0.1c0,0.3,0,0.6,0.1,0.8
		c0,0.2,0,0.3-0.1,0.5C83.4,37.2,83.3,37.3,83.2,37.5z M83.2,37.5l0.1,0.1c0.1,0.3,0.2,0.5,0.1,0.6c-0.1,0.1-0.1,0.2-0.1,0.3
		c0,0.1,0,0.2,0,0.3c0.1,0.2,0.2,0.3,0.3,0.2c0.2-0.1,0.4-0.1,0.5-0.2c0.3-0.3,0.6-0.5,0.8-0.8c0.3-0.3,0.6-0.5,0.8-0.8
		c0.1-0.1,0.1-0.1,0.1-0.2c0,0,0.1-0.1,0.1-0.2c0.1-0.1,0.1-0.2,0.2-0.3c0-0.1,0.1-0.2,0.2-0.3c0.2-0.3,0.3-0.5,0.4-0.7
		c0,0,0-0.1,0.1-0.2c0.1-0.2,0.2-0.3,0.3-0.5c0.1-0.2,0.2-0.4,0.3-0.5c0.1-0.2,0.2-0.4,0.3-0.6c0.1-0.2,0.2-0.4,0.3-0.6
		c0.1-0.2,0.2-0.4,0.2-0.6c0.1-0.2,0.1-0.4,0.2-0.6c0.1-0.3,0.1-0.6,0.1-0.8c0-0.3,0-0.6,0-0.8c0-0.1,0-0.2-0.1-0.4
		c-0.1-0.2-0.3-0.3-0.4-0.4c-0.1-0.1-0.2-0.3-0.4-0.4c-0.2-0.1-0.3-0.3-0.5-0.4c-0.1-0.1-0.3-0.2-0.4-0.4c-0.2-0.2-0.5-0.3-0.7-0.4
		c-0.2-0.1-0.5-0.2-0.8-0.1c-0.1,0-0.3,0-0.4,0c-0.1,0-0.2,0-0.4,0c0,0-0.1,0-0.1,0c0,0-0.1,0-0.1,0c-0.2,0.1-0.3,0.2-0.4,0.3
		c-0.1,0.2-0.1,0.3-0.2,0.5c-0.1,0.2-0.1,0.4-0.2,0.5c-0.1,0.2-0.1,0.5-0.2,0.6c-0.1,0.2-0.1,0.4-0.2,0.6c0,0,0,0.1-0.1,0.3
		c-0.1,0.1-0.2,0.3-0.2,0.5v0.2C83,31.6,83,31.8,83,32.1c0,0.2,0.1,0.3,0.1,0.5c0,0.2,0,0.4-0.1,0.6v0.2c0,0.1,0.1,0.2,0.1,0.3
		c0,0.1,0,0.2,0.1,0.3c0,0.1,0,0.2,0.1,0.2c0,0.2,0.1,0.4,0.2,0.7c0,0.1,0.1,0.3,0.1,0.4c0,0.1,0,0.3-0.1,0.4v0.1
		c0,0.3,0,0.6,0.1,0.8c0,0.2,0,0.3-0.1,0.5C83.4,37.2,83.3,37.3,83.2,37.5z M84.2,44.1c0,0.1,0,0.1,0,0.1c0,0,0,0,0,0.1
		c-0.1,0.3-0.1,0.6-0.1,0.9c0,0.3-0.1,0.6-0.1,0.9c-0.1,0.1-0.1,0.2,0,0.4c0.1,0.1,0.1,0.2,0.1,0.3c0,0.1,0,0.2,0,0.3
		c0,0.1-0.1,0.3-0.1,0.5c0,0.2,0.1,0.3,0.1,0.5c0,0.1,0,0.3,0,0.5c0,0.1,0,0.3,0,0.4c0,0.1,0,0.3,0.1,0.4c0.1,0.1,0,0.2,0,0.4v0.2
		c0.1,0.3,0.1,0.6,0.2,0.9c0,0.3,0.1,0.6,0.2,0.9c0,0.1,0.1,0.2,0.1,0.3c0,0.1,0,0.2,0.1,0.4c0.1,0.2,0.1,0.3,0.1,0.4
		c-0.1,0.3-0.1,0.6,0.1,0.9c0,0.1,0.1,0.2,0.1,0.3c0,0.3,0.1,0.5,0.2,0.7c0,0.1,0,0.1,0.1,0.1c0.1,0.2,0.2,0.2,0.4,0.2
		c0.2-0.1,0.3-0.1,0.5-0.2c0.2-0.1,0.3-0.1,0.5-0.2c0.1,0,0.2,0,0.4-0.1c0.1-0.1,0.3-0.1,0.4-0.2c0.1,0,0.2-0.1,0.3-0.3
		c0.3-0.4,0.6-0.9,1-1.5c0.1-0.1,0.1-0.2,0.1-0.3c0-0.1,0.1-0.2,0.1-0.3c0.2-0.3,0.4-0.7,0.5-1.2c0.1-0.2,0.1-0.3,0.1-0.5
		c0-0.2,0-0.3,0.1-0.5c0.1-0.3,0.1-0.6,0.2-0.8c0-0.3,0.1-0.6,0.1-0.8v-0.2c0-0.1,0-0.2,0-0.3c0-0.1,0-0.2,0-0.3
		c0-0.4-0.1-0.6-0.4-0.8l-0.6-0.6c-0.1-0.1-0.2-0.2-0.3-0.3c-0.1-0.1-0.2-0.2-0.3-0.3c-0.2-0.2-0.5-0.3-0.7-0.3c-0.1,0-0.1,0-0.2,0
		c-0.1,0-0.2,0-0.2,0c-0.1,0-0.1,0-0.2,0c-0.1,0-0.2,0-0.2,0c-0.3,0-0.6-0.1-0.8-0.2c-0.3-0.2-0.6-0.3-1-0.5
		C84.4,44.2,84.3,44.1,84.2,44.1z M84.2,44.1c0,0.1,0,0.1,0,0.1c0,0,0,0,0,0.1c-0.1,0.3-0.1,0.6-0.1,0.9c0,0.3-0.1,0.6-0.1,0.9
		c-0.1,0.1-0.1,0.2,0,0.4c0.1,0.1,0.1,0.2,0.1,0.3c0,0.1,0,0.2,0,0.3c0,0.1-0.1,0.3-0.1,0.5c0,0.2,0.1,0.3,0.1,0.5
		c0,0.1,0,0.3,0,0.5c0,0.1,0,0.3,0,0.4c0,0.1,0,0.3,0.1,0.4c0.1,0.1,0,0.2,0,0.4v0.2c0.1,0.3,0.1,0.6,0.2,0.9c0,0.3,0.1,0.6,0.2,0.9
		c0,0.1,0.1,0.2,0.1,0.3c0,0.1,0,0.2,0.1,0.4c0.1,0.2,0.1,0.3,0.1,0.4c-0.1,0.3-0.1,0.6,0.1,0.9c0,0.1,0.1,0.2,0.1,0.3
		c0,0.3,0.1,0.5,0.2,0.7c0,0.1,0,0.1,0.1,0.1c0.1,0.2,0.2,0.2,0.4,0.2c0.2-0.1,0.3-0.1,0.5-0.2c0.2-0.1,0.3-0.1,0.5-0.2
		c0.1,0,0.2,0,0.4-0.1c0.1-0.1,0.3-0.1,0.4-0.2c0.1,0,0.2-0.1,0.3-0.3c0.3-0.4,0.6-0.9,1-1.5c0.1-0.1,0.1-0.2,0.1-0.3
		c0-0.1,0.1-0.2,0.1-0.3c0.2-0.3,0.4-0.7,0.5-1.2c0.1-0.2,0.1-0.3,0.1-0.5c0-0.2,0-0.3,0.1-0.5c0.1-0.3,0.1-0.6,0.2-0.8
		c0-0.3,0.1-0.6,0.1-0.8v-0.2c0-0.1,0-0.2,0-0.3c0-0.1,0-0.2,0-0.3c0-0.4-0.1-0.6-0.4-0.8l-0.6-0.6c-0.1-0.1-0.2-0.2-0.3-0.3
		c-0.1-0.1-0.2-0.2-0.3-0.3c-0.2-0.2-0.5-0.3-0.7-0.3c-0.1,0-0.1,0-0.2,0c-0.1,0-0.2,0-0.2,0c-0.1,0-0.1,0-0.2,0c-0.1,0-0.2,0-0.2,0
		c-0.3,0-0.6-0.1-0.8-0.2c-0.3-0.2-0.6-0.3-1-0.5C84.4,44.2,84.3,44.1,84.2,44.1z"/>
	<path fill="#00A19A" d="M123.1,27.5c0.2,0.1,0.5,0.1,0.8,0c0.1,0,0.2,0,0.3,0c0.1,0,0.2,0.1,0.3,0.1c0.1,0,0.1,0,0.1-0.1
		c0,0,0,0,0.1,0.1c0.1,0,0.2,0,0.3-0.1c0.1-0.1,0.2-0.1,0.2-0.1c0,0,0.1,0,0.2,0c0.1-0.1,0.1-0.1,0.1,0c0.2,0.2,0.3,0.2,0.3,0
		c0-0.2,0.1-0.3,0.3-0.4c0.1-0.1,0.2-0.1,0.4,0c0.1,0.1,0.3,0.1,0.4,0c0.2-0.1,0.3-0.1,0.5-0.2c0.2-0.1,0.3-0.2,0.5-0.2
		c0.1,0,0.1-0.1,0.2-0.1c0.1,0,0.1-0.1,0.2-0.1c0.1,0,0.2-0.1,0.3-0.1c0.1,0,0.2-0.1,0.3-0.1l0.1-0.1c0.2,0,0.3-0.1,0.5-0.1
		c0.2,0,0.3-0.1,0.5-0.1c0.2,0,0.3-0.1,0.5-0.1c0.2,0,0.3,0,0.5,0c0.2,0,0.4,0,0.7,0.1c0.3,0.1,0.6,0.2,0.7,0.3c0,0,0,0.1,0,0.1
		c0,0,0,0,0,0.1c0,0.3-0.1,0.5-0.3,0.6c-0.1,0-0.1,0.1-0.2,0.1c-0.1,0.1-0.1,0.1-0.2,0.1c-0.1,0-0.1,0.2-0.1,0.4v0.1v0.1
		c-0.1,0-0.1,0.1-0.2,0.1c-0.1,0-0.1,0.1-0.2,0.1c0,0.1-0.1,0.2-0.1,0.4c0,0.1-0.1,0.2-0.2,0.3c-0.2,0.1-0.4,0.3-0.5,0.5
		c0,0.1,0,0.2-0.1,0.2c-0.1,0.1-0.2,0.1-0.3,0.2c-0.1,0.1-0.1,0.1-0.2,0.2c-0.3,0.4-0.6,0.6-1,0.8c0,0-0.1,0-0.1,0c0,0,0,0-0.1,0
		c-0.2,0-0.4,0.1-0.6,0.2c-0.2,0.1-0.4,0.2-0.5,0.3c-0.1,0-0.3,0.1-0.4,0.1c-0.1,0-0.2,0.1-0.4,0.1c-0.1,0-0.2,0-0.3,0.1
		c-0.1,0-0.1,0-0.2,0.1c-0.1,0.1-0.2,0.1-0.4,0.1c-0.1-0.1-0.2-0.1-0.3,0.1c-0.2,0.2-0.2,0.4-0.2,0.6v0.2c-0.1,0.2-0.1,0.4-0.1,0.7
		c0,0.1,0,0.2-0.1,0.3c-0.1,0.1-0.1,0.2-0.1,0.3c0,0,0,0.1,0,0.1c0,0,0,0.1,0,0.1c0,0.4,0,0.7,0,1.1v0.1c0,0.3,0.1,0.5,0.1,0.8
		c0,0.2,0,0.5,0.1,0.8c0,0,0,0.1,0,0.1c0,0,0,0.1,0,0.1c0,0.1,0,0.1,0,0.2c0,0.1,0,0.2,0,0.2c0,0,0.1,0.1,0.1,0.2
		c0,0.1-0.1,0.4-0.1,0.7c0.1,0.2,0.2,0.4,0.2,0.6c0,0.1,0,0.2,0,0.3c0,0.1,0,0.2-0.1,0.3c0,0.2,0,0.3-0.1,0.5
		c-0.1,0.2-0.1,0.3,0,0.5c0,0.2,0.1,0.3,0.3,0.3c0.1,0,0.1-0.1,0.2-0.1c0.1,0,0.1,0,0.2-0.1c0.1,0,0.1-0.1,0.2-0.1s0.1,0,0.2-0.1
		c0.1,0,0.1,0,0.1-0.1c0.1-0.1,0.2-0.2,0.3-0.2c0.1,0,0.2,0,0.3-0.1c0.2,0,0.3,0,0.4-0.1c0.1-0.1,0.2-0.1,0.4-0.1
		c0.2,0,0.3,0,0.4-0.1c0.1-0.1,0.3-0.1,0.4-0.1c0.1,0,0.2,0,0.3-0.1l0.1-0.1l1.1-0.2c0.1,0,0.3-0.1,0.4-0.1c0.1,0,0.2-0.1,0.4-0.1
		c0.1,0,0.3-0.1,0.4-0.2c0.1-0.1,0.3-0.1,0.5,0h0.2c0.2,0,0.3-0.1,0.5-0.1c0.2,0,0.3,0,0.5,0c0.2-0.1,0.5-0.1,0.7,0.1
		c0.1,0,0.1,0,0.2,0c0.1,0,0.1,0,0.2,0c0.1,0,0.2,0,0.3,0.1c-0.1,0.1-0.1,0.1-0.2,0.2c0,0.1-0.1,0.1-0.1,0.2
		c-0.1,0.1-0.1,0.2-0.2,0.3c-0.1,0.1-0.2,0.2-0.2,0.4c-0.1,0.2-0.2,0.4-0.5,0.4c-0.1,0-0.2,0.1-0.3,0.3v0.1c0,0.2,0,0.4-0.1,0.5
		c-0.1,0.1-0.1,0.1-0.2,0.2c-0.1,0.1-0.2,0.1-0.3,0.2l-0.1,0.1c0,0.1,0,0.1,0,0.2c0,0,0,0.1,0,0.2c-0.1,0.1-0.2,0.2-0.2,0.3
		c0,0.1,0,0.1-0.1,0.2c-0.1,0.1-0.1,0.1,0,0.2c0.1,0.1,0,0.1,0,0.2c-0.1,0.1-0.2,0.1-0.3,0.2v0.1c-0.1,0.1-0.1,0.1-0.2,0.2
		c0,0.1-0.1,0.1-0.2,0.1c-0.2,0.1-0.4,0.2-0.6,0.5c-0.3,0-0.6,0.2-0.8,0.6c-0.2,0-0.3,0-0.4,0.1c0,0-0.1,0.1-0.1,0.1
		c0,0.1,0,0.1-0.1,0.1c-0.2,0.1-0.3,0.1-0.4,0.2c-0.1,0.1-0.2,0.2-0.4,0.2c-0.1,0.1-0.1,0.1-0.2,0.1c-0.1,0-0.1,0-0.1,0
		c-0.1,0.1-0.2,0.1-0.4,0.1h-0.3c-0.2,0-0.3,0-0.5,0c-0.2,0-0.3,0-0.5,0h-0.2c-0.1,0.1-0.1,0.2-0.2,0.2c-0.1,0-0.2,0-0.2,0.1
		c-0.1,0.1-0.1,0.1-0.2,0.1c-0.1,0-0.2,0.1-0.2,0.1c-0.1,0.1-0.2,0.2-0.3,0.3c-0.1,0.1-0.1,0.2,0,0.3c0.1,0.1,0.1,0.1,0.1,0.2
		c0,0.1,0,0.1,0,0.2c0,0.1-0.1,0.3-0.1,0.5c0,0.1,0,0.1,0,0.1c0,0,0,0.1,0,0.1c-0.1,0-0.1,0.1,0,0.2c0.1,0.1,0.1,0.2,0.1,0.3
		c0,0.1,0,0.2,0,0.3c-0.1,0.1-0.1,0.1-0.1,0.2c0,0.1,0.1,0.1,0.1,0.2c0.1,0.1,0.1,0.3,0.1,0.6c0,0.1,0,0.2,0,0.3c0,0.1,0,0.2,0,0.3
		c0.1,0.1,0.1,0.1,0.1,0.2c-0.1,0.1-0.1,0.2,0,0.3c0,0.3,0.1,0.7,0.1,1c0,0.3,0.1,0.6,0.1,1c0,0.1,0,0.2,0.1,0.3
		c0,0,0.1,0.1,0.1,0.3c0,0.1,0,0.2,0,0.3c0,0.1,0,0.2,0.1,0.3c0,0.1,0.1,0.3,0.1,0.4c0,0.1,0.1,0.2,0.1,0.4c0,0.1,0.1,0.1,0.1,0.2
		c0,0.1,0,0.2,0.1,0.2c0.1,0.1,0.1,0.3,0.2,0.4c0,0.1,0.1,0.2,0.2,0.4c0,0.1,0,0.1,0,0.2c0,0,0,0.1,0.1,0.2l0.1,0.2
		c0,0.1,0.1,0.3,0.2,0.6c0.1,0.1,0.2,0.2,0.3,0.2c0,0,0.1,0,0.1,0.1c0.1,0,0.1,0,0.2-0.1c0,0,0-0.1,0.1-0.1c0.2,0.1,0.3,0.1,0.5,0
		c0.1-0.1,0.3-0.1,0.5-0.1c0.7-0.1,1.3-0.2,1.9-0.3c0.2,0,0.3-0.1,0.5-0.1c0.2,0,0.3,0,0.5-0.1c0.2,0,0.3-0.1,0.5-0.1
		c0.1-0.1,0.3-0.1,0.5-0.1c0.1,0,0.1,0,0.1-0.1c0.1-0.1,0.1-0.1,0.2-0.2c0.1,0,0.2-0.1,0.3-0.1c0,0.2,0,0.3-0.1,0.3
		c-0.1,0-0.1,0.1-0.2,0.3c-0.1,0.1-0.1,0.3-0.2,0.4c-0.1,0.1-0.2,0.2-0.2,0.4c0,0.1-0.1,0.1-0.1,0.1c-0.1,0-0.1,0-0.1,0.1
		c-0.1,0.2-0.2,0.3-0.4,0.4c-0.1,0.1-0.3,0.2-0.4,0.3c-0.1,0.1-0.2,0.3-0.2,0.4c0,0.1-0.1,0.2-0.2,0.3c-0.1,0-0.3,0.1-0.4,0.3
		c-0.1,0.1-0.2,0.2-0.3,0.3c0,0-0.1,0.1-0.3,0.2c-0.1,0.1-0.2,0.2-0.3,0.4c-0.2,0-0.3,0-0.4,0.1c-0.1,0.1-0.2,0.2-0.4,0.3
		c-0.1,0.1-0.3,0.2-0.6,0.3c-0.1,0-0.1,0.1-0.2,0.1c-0.1,0-0.1,0-0.2,0.1c-0.1,0.1-0.2,0.1-0.4,0.1c-0.1,0-0.2,0.1-0.3,0.1
		c-0.1,0-0.2,0-0.2,0.1h-0.2c-0.1,0-0.3,0-0.4,0c-0.1,0-0.2,0-0.4,0c-0.1,0-0.1,0-0.2-0.1c-0.1,0-0.2-0.1-0.2-0.1
		c-0.2-0.1-0.4-0.2-0.6-0.2c-0.2,0-0.4-0.1-0.6-0.2c-0.1,0-0.1-0.1-0.2-0.1c0,0-0.1,0-0.2-0.1c-0.1,0-0.1-0.1-0.2-0.1
		c0,0-0.1-0.1-0.1-0.1c-0.1,0-0.1,0-0.2-0.1c0,0-0.1-0.1-0.2-0.1c-0.2,0-0.4-0.1-0.5-0.3c-0.1-0.2-0.2-0.3-0.4-0.4
		c-0.1-0.2-0.2-0.4-0.4-0.6c-0.2-0.2-0.3-0.3-0.4-0.6c0-0.1-0.1-0.1-0.1-0.2c-0.1-0.1-0.1-0.2-0.2-0.2c0-0.1,0-0.1,0-0.2
		c0-0.1,0-0.2-0.1-0.2c-0.1-0.1-0.2-0.2-0.3-0.4c0-0.1,0-0.2,0-0.3c0-0.1,0-0.2,0-0.3c0-0.1,0-0.2-0.1-0.2l-0.1-0.1l-0.2-0.6
		c-0.1-0.2-0.1-0.3-0.1-0.4c0-0.1,0-0.1,0-0.2c0-0.1,0-0.1-0.1-0.2c0,0-0.1,0-0.1-0.1c0-0.2,0-0.4-0.1-0.6c-0.1-0.2-0.1-0.4-0.2-0.6
		c0-0.5-0.1-0.9-0.2-1.1c0-0.2-0.1-0.3-0.1-0.4c0-0.1,0-0.3-0.1-0.4c0-0.1-0.1-0.2-0.1-0.3c0-0.1,0-0.2-0.1-0.4
		c-0.1-0.1-0.1-0.2,0-0.3v-0.1v-1c0-0.1,0-0.3,0-0.4c0-0.1,0-0.2,0.1-0.4v-0.1c0-0.2-0.1-0.4-0.1-0.6c0-0.2,0-0.4,0-0.5V46
		c0-0.1,0-0.3,0-0.4c0-0.1,0-0.2,0-0.3c0-0.1,0-0.2,0.1-0.2c0-0.1,0-0.2-0.1-0.3v-0.1v-0.1c0.1-0.1,0.1-0.2,0.1-0.3
		c0-0.1-0.1-0.2-0.1-0.3c0-0.2,0-0.3-0.1-0.5c0-0.2,0-0.3,0.1-0.5c0-0.2,0.1-0.3,0.1-0.4c0-0.1,0-0.2,0-0.4c0.1-0.1,0.1-0.1,0.1-0.2
		c0-0.1-0.1-0.1-0.1-0.2c0-0.1,0-0.2,0-0.3c0-0.1,0-0.2,0.1-0.4c0,0,0.1-0.1,0.1-0.2c0-0.1,0-0.2,0-0.3c0-0.1,0-0.2,0-0.3
		c0-0.1,0.1-0.2,0.1-0.3c0-0.2,0-0.3,0.1-0.4c0.1-0.2,0.1-0.4,0.1-0.6c0-0.2,0-0.4,0.1-0.6v-0.2v-0.2c0.1-0.1,0.1-0.3,0.1-0.4
		c0-0.2,0-0.3,0-0.5c0.1-0.2,0.1-0.4,0.2-0.6c0.1-0.2,0.1-0.4,0.2-0.6c0,0,0.1-0.1,0.1-0.2c0-0.1,0-0.2,0-0.3c0-0.1,0.1-0.2,0.1-0.3
		c0-0.1,0-0.2,0.1-0.3c0-0.1,0.1-0.2,0.1-0.3c0-0.1,0-0.2,0.1-0.3c0.1-0.1,0.1-0.2,0-0.3c0-0.1,0-0.2,0-0.3c0-0.1,0.1-0.2,0.1-0.3
		c0-0.1,0.1-0.1,0.1-0.2c0-0.1,0.1-0.2,0.1-0.2c0-0.1,0-0.1,0-0.2c0-0.1,0-0.1,0-0.2c0.1-0.1,0.1-0.3,0.2-0.4c0-0.1,0-0.3,0-0.4
		c0.1-0.2,0.2-0.4,0.2-0.6c0-0.2,0-0.4,0.1-0.6c0.1-0.1,0.1-0.3,0.1-0.4c0.1-0.3,0.1-0.6,0.2-0.8c0.1-0.3,0.1-0.6,0.2-0.8
		c0,0,0.1-0.1,0.1-0.2c0.1-0.3,0.1-0.5,0.2-0.6c0.1-0.2,0.1-0.2,0.1-0.1c0,0.1,0,0,0.1-0.1c0-0.1,0-0.1-0.1,0c0,0.1-0.1,0-0.1,0
		c0-0.1,0-0.1,0.1-0.2c0.1,0,0.1-0.1,0-0.2C123,27.6,123,27.5,123.1,27.5z"/>
	<path fill="#00A19A" d="M158.6,54.8c0.2,0,0.4,0,0.6,0.1c0,0,0,0.1,0.1,0.1h0.1c0,0,0.1-0.1,0.1-0.1c0-0.1,0-0.1,0.1-0.1
		c0,0,0-0.1,0-0.1c0,0,0-0.1,0-0.1c-0.1-0.1-0.1-0.2-0.1-0.3c0,0,0.1-0.1,0.2-0.2c0.1,0,0.2-0.1,0.2-0.2s-0.1-0.2-0.2-0.3
		c-0.1,0-0.2,0-0.3,0.1c-0.1-0.2,0-0.3,0.2-0.4c0.1,0,0.2,0,0.2-0.1c0-0.1-0.1-0.2-0.2-0.2c-0.1,0-0.1,0-0.1,0c0,0,0,0-0.1,0
		c0-0.1,0.1-0.3,0.1-0.5c0-0.2,0-0.5-0.1-0.7c-0.1-0.2-0.1-0.4-0.2-0.6c-0.1-0.2-0.1-0.4,0-0.5v-0.3c0-0.1,0-0.2-0.1-0.4v-0.4
		c0-0.2,0-0.3,0.1-0.4c0-0.1,0-0.3-0.1-0.4c0-0.1-0.1-0.2-0.1-0.3c0.1-0.2,0.1-0.5,0.1-0.7c0-0.2-0.1-0.5-0.1-0.7
		c-0.1-0.2-0.1-0.5,0-0.8c0-0.2,0.1-0.3,0.1-0.5c0-0.1,0-0.3,0-0.5c0.1,0,0.2-0.1,0.3-0.1c0-0.1,0.1-0.2,0.1-0.3
		c0-0.1,0-0.1,0.1-0.2c0-0.2-0.1-0.3-0.2-0.3c-0.1,0-0.2-0.1-0.3-0.1c0-0.1-0.1-0.2-0.1-0.3c0-0.1,0-0.2-0.1-0.4c0-0.1,0-0.3,0-0.4
		c0-0.1,0-0.2,0-0.3c0-0.1-0.1-0.2-0.1-0.3c0.1-0.1,0.1-0.3,0.1-0.4c0-0.1-0.1-0.3-0.1-0.4c-0.1-0.2-0.2-0.4-0.1-0.6
		c0.1-0.2,0.1-0.4,0-0.6c0.1-0.1,0.1-0.2,0.1-0.3c0-0.1-0.1-0.2-0.1-0.3c0-0.3,0-0.5,0.1-0.7c0-0.1,0-0.2,0.1-0.3h0.2
		c0,0,0.1,0,0.2-0.1c0,0-0.1,0-0.1-0.1c0,0,0-0.1-0.1-0.1h-0.4V39c0-0.3,0-0.6-0.1-0.8c0-0.1,0-0.2,0-0.3c0-0.1,0-0.2,0-0.3
		c0-0.1,0.1-0.3,0.1-0.4c0-0.1,0-0.2,0.1-0.4c0.1-0.1,0.1-0.1,0-0.2c0-0.2,0-0.4,0.1-0.8c0.1-0.4,0.2-0.8,0.2-1.2v-0.2
		c0-0.1,0.1-0.1,0.1-0.2c-0.1-0.1-0.1-0.3-0.1-0.4c0-0.1,0-0.3,0-0.4v-0.7c0-0.1,0-0.1,0.1-0.1c0.1-0.1,0.1-0.3,0.2-0.4
		c0-0.2,0.1-0.3,0.1-0.5c0,0,0.1-0.1,0.1-0.2c0.1-0.3,0.2-0.5,0.3-0.8c0.1-0.3,0.3-0.5,0.4-0.8l0.2-0.2c0.1-0.1,0.2-0.3,0.2-0.5
		c0.1-0.3,0.2-0.6,0.3-0.9c0.2-0.3,0.4-0.5,0.6-0.7c0.2-0.2,0.5-0.4,0.8-0.6c0.3-0.3,0.7-0.5,1.1-0.7c0.4-0.2,0.7-0.4,1.1-0.6
		c0.6-0.3,1.2-0.4,1.8-0.4c0.6,0,1.2,0.1,1.8,0.3c0.6,0.2,1.2,0.4,1.6,0.6c0.1,0.1,0.3,0.1,0.4,0.2c0.1,0.1,0.2,0.2,0.4,0.2
		c0.1,0.1,0.2,0.1,0.3,0.2c0.1,0.1,0.2,0.2,0.3,0.2c0.3,0.2,0.5,0.4,0.7,0.6c0.2,0.2,0.4,0.4,0.6,0.7c0.1,0.2,0.2,0.3,0.3,0.5
		c0.1,0.1,0.2,0.3,0.3,0.5c0.1,0.2,0.2,0.3,0.3,0.5c0,0.2,0.1,0.3,0.1,0.5c0,0.2,0.1,0.4,0.1,0.6c0,0.2,0.1,0.4,0.1,0.6
		c0.1,0.1,0.1,0.3,0.1,0.4c0,0.1,0,0.2,0,0.3c-0.1,0.1-0.1,0.1-0.1,0.2c0.1,0.2,0.1,0.5-0.1,0.7c-0.1,0.2-0.1,0.4-0.1,0.7
		c0,0,0,0.1,0,0.1c0,0,0,0,0,0.1c-0.1,0.1-0.1,0.3-0.2,0.4c0,0.1,0,0.2,0,0.4c0,0.1,0,0.2,0,0.3c0,0.1-0.1,0.2-0.1,0.3
		c0,0.1-0.1,0.3-0.1,0.4c0,0.1-0.1,0.2-0.1,0.4c0,0.2-0.1,0.5-0.2,0.6c-0.1,0.2-0.2,0.4-0.3,0.6c0,0,0,0.1,0,0.1c0,0,0,0,0,0.1
		c-0.1,0.1-0.2,0.3-0.3,0.4c-0.1,0.1-0.2,0.3-0.2,0.5c-0.1,0.2-0.2,0.3-0.3,0.5c-0.1,0.2-0.2,0.4-0.4,0.5c-0.2,0.3-0.4,0.6-0.7,0.8
		c0,0-0.1,0.1-0.1,0.1c0,0,0,0.1-0.1,0.1c0,0,0,0.1,0,0.1c0,0,0,0.1,0,0.1c-0.1,0.1-0.2,0.3-0.3,0.4c-0.1,0.1-0.2,0.2-0.3,0.4
		c0,0.1-0.1,0.1-0.1,0.1c0,0-0.1,0-0.1,0.1l-0.3,0.3c-0.1,0.1-0.3,0.1-0.4,0c-0.1-0.1-0.3-0.1-0.5-0.1c-0.1,0.1-0.3,0.1-0.4,0.2
		c-0.1,0.1-0.2,0.1-0.4,0.2c-0.1,0.1-0.2,0.2-0.3,0.3c-0.1,0.3-0.4,0.5-0.8,0.7c-0.3,0.1-0.5,0.3-0.6,0.5c-0.1,0.1-0.2,0.2-0.3,0.3
		c-0.3,0.3-0.3,0.6-0.1,0.9c0.1,0.1,0.1,0.1,0.1,0.2c0,0.1,0.1,0.2,0.1,0.2c0.2,0.4,0.5,0.7,0.8,0.9l0.8,0.8
		c0.2,0.2,0.3,0.3,0.5,0.5c0.2,0.2,0.3,0.3,0.4,0.5c0.4,0.5,0.7,1.1,0.9,1.7c0,0.2,0.1,0.3,0.2,0.4c0.1,0.1,0.1,0.2,0.2,0.4
		c0.1,0.1,0.1,0.3,0.2,0.4c0.1,0.1,0.2,0.3,0.2,0.4c0.2,0.4,0.4,0.9,0.6,1.4c0.1,0.2,0.2,0.4,0.3,0.5c0.1,0.2,0.2,0.3,0.4,0.5
		c0.1,0.2,0.2,0.3,0.3,0.4c0.1,0.1,0.2,0.3,0.3,0.4c0.1,0.2,0.2,0.3,0.3,0.5c0.1,0.2,0.2,0.3,0.3,0.5c0.1,0.1,0.1,0.2,0.2,0.3
		c0,0.1,0.1,0.2,0.2,0.4c0,0,0,0.1,0,0.1c0,0,0,0,0,0.1c0.1,0.1,0.1,0.2,0.2,0.3c0.1,0.1,0.1,0.2,0.2,0.3c0.1,0.1,0.1,0.2,0.2,0.3
		c0.1,0.1,0.1,0.2,0.2,0.3c0.1,0.1,0.1,0.1,0.2,0.2c0,0.1,0.1,0.2,0.2,0.2c0.2,0.3,0.4,0.6,0.5,1.1c0.1,0.2,0,0.4-0.3,0.6l-0.2,0.1
		c-0.1,0.1-0.3,0.1-0.4-0.1c-0.1-0.1-0.3-0.1-0.5-0.1c-0.2,0.1-0.4,0.2-0.7,0.2c-0.3,0-0.5-0.1-0.7-0.2c-0.2-0.1-0.3-0.2-0.5-0.3
		c-0.1-0.1-0.3-0.2-0.5-0.3c-0.3-0.2-0.6-0.6-0.8-1c-0.1-0.2-0.2-0.3-0.3-0.5c-0.1-0.2-0.2-0.4-0.3-0.5c-0.2-0.3-0.3-0.5-0.5-0.8
		c-0.2-0.3-0.3-0.5-0.5-0.8c-0.2-0.3-0.4-0.7-0.6-1.1c-0.2-0.4-0.3-0.7-0.5-1.1c-0.2-0.4-0.4-0.8-0.6-1.1c-0.2-0.4-0.3-0.8-0.5-1.2
		c-0.1-0.2-0.2-0.4-0.3-0.6c-0.1-0.2-0.2-0.4-0.3-0.6l-0.8-1.4c-0.1-0.2-0.3-0.5-0.4-0.7c-0.1-0.2-0.2-0.5-0.4-0.7l-0.1-0.1
		c-0.3-0.2-0.5-0.5-0.7-0.7c-0.2-0.2-0.4-0.5-0.6-0.8c0-0.1-0.1-0.2-0.2-0.3c-0.1-0.1-0.3-0.1-0.4,0.1c0,0.1-0.1,0.1-0.1,0.2
		c0,0,0,0.1-0.1,0.2c0,0.2,0,0.3,0,0.5c0,0.2,0,0.4-0.1,0.5c0,0.1,0,0.2,0,0.3c0,0.1,0,0.2,0,0.3c0,0.3,0,0.5,0,0.7
		c0,0.2,0,0.5,0,0.7V49c0,0.3,0,0.5,0,0.8c-0.1,0.2-0.1,0.4,0,0.6c0.1,0.2,0.1,0.3,0.1,0.5c0,0.1,0,0.3,0,0.5c0,0.3,0,0.6,0,0.8
		c0,0.3,0,0.6,0.1,0.8c0,0,0.1,0.1,0.1,0.2c0,0.2,0,0.3,0,0.4c0,0.1,0,0.3,0.1,0.4c0,0.2,0,0.3,0,0.5c0,0.2,0,0.4,0.1,0.5
		c0,0.2,0,0.3,0,0.5c0,0.1,0,0.3,0,0.5c0,0.2,0,0.4,0.1,0.5c0.1,0.2,0,0.4-0.1,0.6l-0.2,0.3c-0.2,0.3-0.5,0.5-0.9,0.6h-0.6
		c-0.2,0-0.4-0.1-0.5-0.4c-0.1-0.3-0.2-0.5-0.3-0.8c-0.1-0.3-0.2-0.5-0.3-0.8c-0.1-0.4-0.3-0.7-0.7-0.9
		C158.8,55,158.7,55,158.6,54.8L158.6,54.8z M159.1,39.8c0,0.2,0,0.4,0,0.5c0.1,0.1,0.1,0.1,0.2,0.1c0.1,0,0.2-0.1,0.2-0.2
		c0,0,0-0.1-0.1-0.2c0-0.1-0.1-0.1-0.1-0.1C159.2,39.9,159.2,39.8,159.1,39.8z M159.7,36.1c-0.1,0-0.2,0-0.2,0.1
		c0,0.1,0,0.1-0.1,0.2c-0.1,0.1-0.1,0.2,0.1,0.2c0,0,0.1,0,0.2-0.1C159.7,36.3,159.7,36.2,159.7,36.1z M159.7,48.3
		c0.1,0,0.2-0.1,0.2-0.2c0-0.1-0.1-0.2-0.2-0.2c-0.2,0-0.3,0.1-0.3,0.3C159.4,48.2,159.5,48.3,159.7,48.3z M170.2,30.5
		c0-0.5-0.1-0.9-0.3-1.3c-0.1-0.1-0.1-0.2-0.2-0.3c-0.1-0.1-0.2-0.2-0.3-0.3c-0.2-0.1-0.3-0.2-0.5-0.2c-0.1-0.1-0.3-0.1-0.5-0.2
		c-0.3-0.1-0.6-0.1-0.8-0.1c-0.7,0.1-1.5,0.4-2.1,0.9c-0.2,0.2-0.4,0.3-0.6,0.5c-0.2,0.2-0.4,0.3-0.6,0.6c-0.1,0.2-0.3,0.3-0.4,0.5
		c-0.1,0.2-0.2,0.3-0.3,0.5c-0.1,0.2-0.1,0.5-0.2,0.7c0,0.2-0.1,0.5-0.1,0.7c0,0.4-0.1,0.7-0.2,1.1c0,0.1-0.1,0.2-0.1,0.3
		c0,0.1,0,0.2-0.1,0.3c0,0.2,0,0.3,0,0.5c0,0.1,0,0.3,0,0.5c-0.1,0.2-0.1,0.4-0.1,0.6c0,0.2,0,0.4-0.1,0.6c0,0.2-0.1,0.3-0.1,0.5
		c0,0.1,0,0.3-0.1,0.5c0,0.2-0.1,0.3-0.1,0.5c0,0.1,0,0.3,0,0.5v0.2c0,0.1-0.1,0.3-0.1,0.4c0,0.1,0,0.3-0.1,0.4c0,0.1,0,0.1,0,0.2
		c0,0.1,0,0.2,0.1,0.2c0.1,0.1,0.3,0.1,0.5-0.1c0,0,0.1,0,0.1-0.1l0.9-0.6c0.1-0.1,0.3-0.2,0.4-0.3c0.1-0.1,0.3-0.2,0.5-0.3
		c0.3-0.2,0.6-0.3,0.8-0.5c0.3-0.2,0.6-0.4,0.8-0.6c0.3-0.3,0.5-0.5,0.7-0.8c0.2-0.3,0.4-0.5,0.5-0.8c0.2-0.3,0.3-0.6,0.5-0.8
		c0.2-0.3,0.3-0.6,0.5-0.9c0.1-0.2,0.3-0.5,0.4-0.7c0.1-0.2,0.3-0.4,0.4-0.7c0.1-0.3,0.2-0.6,0.2-0.9
		C170.1,31.1,170.2,30.8,170.2,30.5z"/>
	<path fill="#00A19A" d="M198.6,44.9c-0.2-0.1-0.2-0.2-0.2-0.4C198.5,44.6,198.6,44.8,198.6,44.9z M198.8,55.2
		C198.8,55.2,198.8,55.2,198.8,55.2c0-0.1,0.1-0.1,0.1-0.1c0,0-0.1-0.1-0.1-0.1c0,0,0,0-0.1-0.1c0-0.2,0-0.5,0.1-0.8
		c-0.2-0.2-0.3-0.5-0.3-0.7c0.1-0.1,0.1-0.1,0.1-0.2c0-0.1,0.1-0.1,0.1-0.2c0-0.1-0.1-0.1-0.1-0.2c0-0.1-0.1-0.2-0.1-0.2
		c0.1,0,0.1,0,0.2-0.1c0-0.1,0-0.1,0-0.1c0,0,0-0.1,0-0.1c-0.1-0.2-0.2-0.4-0.2-0.6c0-0.1,0-0.3-0.1-0.6c0.1-0.3,0.1-0.4,0.1-0.5
		c0-0.1,0.1-0.2,0.2-0.3c0-0.2,0-0.3,0-0.3c0,0-0.1-0.1-0.1-0.2v-0.2c0.1-0.2,0.1-0.5,0.1-0.7c0-0.2-0.1-0.4-0.2-0.6
		c0-0.1,0-0.2,0.1-0.3c0,0-0.1-0.1-0.2-0.3c0.1-0.1,0.1-0.2,0.2-0.3s0-0.2,0-0.4c0-0.1,0.1-0.1,0.1-0.2c0-0.1,0-0.1,0.1-0.2
		c0-0.1-0.1-0.3-0.1-0.5c0-0.1,0-0.2-0.1-0.3c0-0.1,0-0.2,0.1-0.3c0,0,0.1,0,0.1,0c0,0,0,0,0.1,0c0-0.1,0-0.1,0-0.2
		c0-0.1,0-0.1,0-0.2c0,0,0-0.1,0-0.1c0,0,0-0.1,0-0.1l0.1-0.1c0.1-0.2,0.1-0.3,0.1-0.5c0-0.2-0.1-0.4-0.2-0.6c0.1,0,0.1,0,0.2,0
		c0,0,0.1,0,0.2,0c0-0.1,0-0.2,0-0.3c0-0.1,0-0.2,0-0.3c0,0,0.1-0.1,0.1-0.1c0,0,0.1,0,0.1-0.1c0-0.1-0.1-0.1-0.1-0.2
		c0-0.1-0.1-0.1-0.1-0.2c0-0.1,0.1-0.2,0.3-0.2c0-0.1-0.1-0.1-0.1-0.2c0,0,0-0.1-0.1-0.2c0.1-0.1,0.2-0.2,0.3-0.3
		c-0.1-0.2-0.1-0.3-0.1-0.5c0-0.2,0-0.3,0-0.5V41c0.1-0.1,0.1-0.1,0.1-0.2c0-0.2,0.1-0.3,0.1-0.5c0-0.1,0-0.3,0.1-0.4
		c0-0.1,0-0.3,0-0.4c0-0.1-0.1-0.2-0.2-0.3c0.1,0,0.1,0,0.2,0c0.1,0,0.1,0,0.2,0c0-0.1,0-0.2-0.1-0.3c0.1-0.1,0.2-0.2,0.2-0.3
		c-0.1-0.1-0.1-0.2,0-0.3c0-0.1,0-0.1,0-0.2c0-0.1,0-0.1,0-0.2l-0.2-0.2c0.1-0.2,0.1-0.3,0.1-0.5c0-0.1,0-0.3,0-0.5
		c0-0.3,0.1-0.5,0.3-0.8c0-0.1,0.1-0.1,0.1-0.2c0-0.1,0.1-0.1,0.1-0.2c0,0,0.1,0,0.1,0c0,0,0,0,0.1,0c0.1-0.2,0.1-0.3,0-0.4
		c-0.1-0.1-0.1-0.1-0.2-0.2c0-0.1,0-0.2,0.1-0.2c0.1,0,0.1,0,0.2-0.1c0.1-0.3,0.2-0.6,0.3-0.9c0.1-0.3,0.2-0.6,0.3-0.9
		c-0.1,0-0.1-0.1-0.1-0.1c0,0-0.1-0.1-0.1-0.2c0.1,0,0.2,0.1,0.3,0.1c0,0,0.1-0.1,0.1-0.1c0,0,0-0.1,0.1-0.2c-0.1,0-0.1-0.1-0.1-0.1
		c0,0-0.1,0-0.1-0.1l0.3-0.3c0,0.1,0,0.2,0.1,0.2c0.1,0,0.3-0.2,0.4-0.4c-0.1,0-0.2-0.1-0.3-0.2l0.1,0.1l-0.2-0.1
		c0-0.1,0-0.1,0.1-0.1c0.1,0,0.1,0,0.2-0.1c0-0.1,0-0.3,0-0.4c0-0.1,0-0.3,0.1-0.4c0.1-0.1,0.2-0.2,0.3-0.3c0-0.1,0.1-0.1,0.1-0.2
		c0-0.1,0-0.1,0.1-0.2c0.1-0.2,0.2-0.4,0.4-0.6c0,0,0-0.1,0-0.1c0,0,0,0,0-0.1c0.1,0,0.3-0.2,0.4-0.4c0.2-0.2,0.4-0.4,0.6-0.6
		c0.2-0.2,0.4-0.4,0.7-0.6c0.1-0.1,0.2-0.2,0.4-0.3c0.1-0.1,0.3-0.2,0.4-0.3c0.2-0.2,0.5-0.4,0.7-0.6c0.2-0.2,0.5-0.3,0.8-0.4
		c0.1-0.1,0.2-0.2,0.4-0.3c0.1-0.1,0.2-0.1,0.3-0.2c0.1-0.1,0.2-0.1,0.4-0.2c0.2-0.1,0.4-0.2,0.6-0.1c0.1,0.1,0.3,0.1,0.4,0.2
		c0.1,0.1,0.2,0.2,0.3,0.4c0.1,0,0.2,0.1,0.3,0.1c0.1,0,0.2,0,0.4-0.1c0.1,0.2,0.3,0.4,0.5,0.5c0.1,0,0.1,0,0.2,0c0.1,0,0.2,0,0.3,0
		c0,0.1,0.1,0.1,0.1,0.2c0,0.1,0.1,0.1,0.2,0.2h0.4c0.3,0.2,0.6,0.4,1,0.8c0.2,0.2,0.2,0.4,0.2,0.6c0.1,0.2,0.1,0.3,0.2,0.4
		c0.1,0.1,0.1,0.2,0.2,0.4h-0.1c0,0.1,0.1,0.3,0.1,0.4c0,0.1,0.1,0.2,0.1,0.4c0,0,0,0.1-0.1,0.3c0.1,0.1,0.1,0.1,0.1,0.2
		c0.1,0.3,0.2,0.5,0.3,0.6c0,0.2,0.1,0.5,0.1,0.7c0,0.2,0,0.5,0.1,0.7c0,0.1,0.1,0.2,0.1,0.3c0,0.1,0,0.2,0.1,0.3
		c0.1,0.1,0.1,0.2,0.1,0.3c0,0.1,0,0.2,0.1,0.3c0.1,0.2,0.1,0.5,0.1,0.7c0,0.2,0.1,0.5,0.1,0.7c-0.1,0.3-0.1,0.6,0,0.8
		c0.1,0.3,0.1,0.6,0.1,0.8c0,0,0.1,0,0.1,0.1c0,0,0.1-0.1,0.1-0.1c0,0,0,0,0.1-0.1c0.1,0.1,0.1,0.1,0,0.2c-0.1,0.1-0.1,0.1,0,0.2
		c0,0.1-0.1,0.3-0.1,0.5h-0.1c0,0.1,0.1,0.1,0.1,0.2c0,0,0,0.1,0.1,0.2c0,0.1-0.1,0.1-0.1,0.1c0,0,0,0.1-0.1,0.1
		c0.1,0.3,0.1,0.7,0.1,1.1c0,0.5-0.1,0.8-0.3,1.1c0.2,0.2,0.3,0.4,0.3,0.6c0,0.2,0,0.5,0.1,0.7c0,0,0,0.1-0.1,0.2
		c0,0.1,0.1,0.1,0.1,0.2c0,0.1,0,0.1,0.1,0.2c0,0.1-0.1,0.1-0.1,0.1c0,0,0,0.1-0.1,0.1l0.1,0.2c0,0.1,0,0.2,0,0.3c0,0.1,0,0.1,0,0.2
		c0,0.1,0,0.1,0,0.2c0,0,0,0.1,0,0.2c0,0.1,0.1,0.3,0.1,0.4c0,0.1,0,0.2,0.1,0.3v0.3v1c0,0.1,0,0.3,0.1,0.5V47
		c0.1,0.1,0.1,0.1,0.2,0.2v0.5v0.1c0,0.1,0,0.1,0.1,0.2l-0.1,0.2c0.1,0.1,0.1,0.1,0.2,0.2c0,0.1-0.1,0.1-0.1,0.2
		c0,0.1,0,0.2-0.1,0.3c0.1,0.2,0.2,0.4,0.2,0.7c0,0.2,0,0.5-0.1,0.7c0,0.1,0,0.3,0.1,0.6l-0.2,0.2c0,0,0.1,0.1,0.2,0.3
		c-0.2,0.1-0.2,0.2-0.2,0.3c0.2,0.5,0.2,0.9,0,1.4c0,0.2,0,0.4-0.1,0.6c0,0.2-0.1,0.5-0.1,0.7c0,0.2-0.1,0.5-0.1,0.7
		c0,0.1,0,0.1,0,0.2c0,0.1,0,0.2,0,0.2c-0.1,0-0.1,0.1-0.2,0.1c-0.1,0-0.1,0.1-0.2,0.1v0.3l-0.6,0.5v0.1c-0.1,0-0.1,0.1-0.2,0.1
		c0,0-0.1,0-0.2,0.1v0.4c-0.1,0-0.1,0.1-0.2,0.1c-0.1,0-0.1,0.1-0.2,0.1c-0.1,0-0.1-0.1-0.2-0.1c-0.1,0-0.2,0-0.3,0.1
		c0,0.1,0.1,0.1,0.1,0.2c0,0,0,0.1,0.1,0.2c0,0,0,0.1,0,0.1c0,0,0,0,0,0.1c0,0.3,0,0.5,0.1,0.7c-0.1,0-0.1,0-0.2,0
		c-0.1,0-0.1,0-0.1,0c0,0.1-0.1,0.2-0.2,0.4c-0.2-0.3-0.3-0.6-0.4-0.9c0,0-0.1-0.1-0.3-0.2c-0.1,0.1-0.1,0.1-0.1,0.2
		c0,0.1,0,0.1,0.1,0.2c-0.1,0.1-0.1,0.1-0.2,0.1c-0.1,0-0.1-0.1-0.2-0.1c-0.1-0.1-0.1-0.3-0.2-0.4c-0.1,0.1-0.1,0.1-0.1,0.2
		c0.1,0.1,0.1,0.1,0,0.1c0,0.1-0.1,0.2-0.3,0.1c-0.1,0-0.1-0.1-0.2-0.1c0,0-0.1-0.1-0.2-0.1l-0.3-0.3c0.1-0.2,0.1-0.3,0-0.4
		c-0.1-0.1-0.2-0.2-0.2-0.2v-0.3c-0.1-0.2-0.2-0.3-0.3-0.5c-0.1-0.1-0.2-0.3-0.3-0.5c0-0.1,0-0.2,0-0.3c0-0.1,0-0.2-0.1-0.3V55
		c0-0.3,0-0.5,0-0.7c-0.1-0.2-0.1-0.5-0.2-0.7v-0.5v-0.3c0-0.2-0.1-0.3-0.1-0.5c0-0.2,0-0.3,0-0.5c0-0.1-0.1-0.2-0.1-0.3v-0.2
		c0-0.2,0-0.3,0-0.5c0-0.2,0-0.3,0-0.5c0-0.2,0-0.4,0-0.6c0-0.2,0-0.4,0-0.6c0-0.1,0-0.3,0-0.4c0-0.1-0.1-0.2-0.1-0.4
		c0.1-0.1,0.2-0.3,0.2-0.4c0-0.2,0-0.3-0.1-0.5c0-0.2,0-0.4,0-0.6s0-0.4-0.1-0.6c0-0.2,0-0.4-0.1-0.7l-0.2-0.2
		c-0.1,0.1-0.2,0.3-0.4,0.5c-0.2,0-0.4,0-0.5,0.2c-0.2,0.1-0.3,0.1-0.5,0.1c-0.1,0.1-0.2,0.2-0.4,0.3c-0.2,0-0.3,0.1-0.4,0.2
		l-1.1-0.3c-0.1,0.1-0.1,0.1-0.2,0.2c-0.1,0.1-0.1,0.1-0.2,0.2c-0.2-0.3-0.4-0.5-0.5-0.6v-0.1c0,0-0.1,0-0.1,0c0,0-0.1,0-0.1,0
		c-0.1,0.1-0.1,0.1-0.1,0.2c0,0.1,0,0.2,0,0.2c0,0-0.1,0.1-0.1,0.1c0,0,0,0.1-0.1,0.1l0.1,0.2c-0.1,0.4-0.1,0.7-0.1,1.1
		c0,0.4-0.1,0.8-0.1,1.2c-0.2,0.2-0.2,0.3,0.1,0.5c0,0.2-0.1,0.5-0.1,0.7c0,0.2,0,0.4,0,0.6c0,0.2-0.1,0.4-0.1,0.6
		c-0.1,0.2-0.1,0.4-0.1,0.7c0.1,0.1,0.1,0.3,0.2,0.6c0.1,0.4,0.1,0.6,0.1,0.8c0,0.1,0.1,0.1,0.1,0.2c0,0,0.1,0.1,0.1,0.2
		c-0.1,0.3-0.1,0.6,0,0.9c0.1,0.3,0,0.7,0,1c0,0.2,0.1,0.4,0.1,0.6c0,0.2,0,0.4,0.1,0.6c0,0.2,0.1,0.5,0.1,0.7
		c0,0.2,0.1,0.4,0.2,0.6c-0.1,0.1-0.2,0.2-0.3,0.2c0,0.1-0.1,0.2-0.1,0.3s0,0.2-0.1,0.3c0,0-0.1,0.1-0.3,0.2
		c-0.1,0.1-0.2,0.2-0.2,0.4c0,0.1-0.1,0.2-0.3,0.3c-0.6-0.3-1.2-0.5-2-0.5c-0.1-0.1-0.1-0.1-0.1-0.2c0,0,0-0.1-0.1-0.1
		c-0.1-0.1-0.3-0.1-0.4-0.1c-0.1,0-0.3-0.1-0.4-0.3c-0.1,0.1-0.1,0.1-0.2,0.1c0,0-0.1,0.1-0.2,0.1l-0.2-0.2c0-0.1,0.1-0.1,0.1-0.2
		c0-0.1,0.1-0.1,0.1-0.2c-0.1-0.1-0.1-0.2-0.2-0.3c-0.1,0.1-0.2,0.1-0.3,0.1c-0.1,0-0.2,0.1-0.3,0.1c-0.1-0.1-0.1-0.1-0.2-0.2
		c0.1,0,0.1-0.1,0.1-0.1c0,0,0.1,0,0.1-0.1V58c0.2-0.2,0.3-0.5,0.2-0.9c0-0.1-0.1-0.3-0.1-0.4c0-0.1,0-0.2-0.1-0.4
		c0-0.1-0.1-0.1-0.2-0.1c-0.1,0-0.2-0.1-0.2-0.3c0.1,0,0.2,0,0.2,0.1c0,0,0.1-0.1,0.1-0.1c0,0,0-0.1,0.1-0.1l-0.2-0.3
		C198.8,55.5,198.8,55.4,198.8,55.2z M200,52.3C199.9,52.3,199.9,52.3,200,52.3C199.9,52.3,200,52.3,200,52.3z M200.4,35.6
		c-0.1-0.1-0.1-0.2-0.1-0.3C200.3,35.4,200.4,35.5,200.4,35.6z M200.7,33.7l-0.1-0.2C200.7,33.5,200.7,33.5,200.7,33.7z M201.5,31.7
		L201.5,31.7L201.5,31.7L201.5,31.7z M202,31.1L202,31.1L202,31.1L202,31.1L202,31.1z M202.2,30.9c0.2-0.1,0.2-0.3,0.1-0.6l-0.2,0.2
		c0,0.1,0,0.1,0,0.2C202.1,30.8,202.1,30.9,202.2,30.9z M204.5,41.1c0.1,0,0.1,0,0.1,0c0,0,0.1,0,0.1,0c0.1,0,0.2-0.1,0.3-0.1
		c0.1,0,0.2,0,0.3-0.1c0.1-0.1,0.3-0.1,0.5-0.1c0,0,0.1,0,0.1,0c0,0,0,0,0.1,0c0.2,0,0.4,0,0.6,0c0.2,0,0.4-0.1,0.5-0.1
		c0.1,0,0.2,0,0.3,0.1c0,0,0.1-0.1,0.1-0.1c0,0,0.1,0,0.1-0.1c0.1,0,0.1,0,0.2,0c0.1,0,0.1,0,0.2,0c0.1-0.1,0.1-0.2,0.2-0.3
		c0-0.2-0.1-0.5-0.1-0.7c0-0.2,0-0.4,0-0.6v-0.6c0-0.1,0-0.1,0-0.1c0,0,0-0.1,0-0.1c0-0.2,0.1-0.4,0.1-0.6s0-0.4,0-0.7
		c0-0.2,0-0.3,0-0.4c0-0.1,0-0.3,0-0.4c0.1-0.2,0.1-0.3,0.1-0.5c0-0.2,0-0.3,0-0.5c0-0.3,0-0.6,0-0.9c0-0.3,0-0.6,0-0.9
		c0-0.3-0.1-0.5-0.1-0.8c0-0.2,0-0.5-0.1-0.7c-0.1-0.3-0.1-0.6-0.2-0.7c-0.1-0.1-0.1-0.2-0.2-0.2c-0.1,0.2-0.2,0.3-0.3,0.4
		c-0.2,0.2-0.3,0.3-0.5,0.5c-0.2,0.2-0.3,0.4-0.4,0.6c-0.1,0.1-0.1,0.3-0.2,0.4c-0.1,0.1-0.2,0.3-0.3,0.5v0.1c0,0.1-0.1,0.3-0.2,0.4
		c-0.1,0.1-0.1,0.1-0.1,0.2c0,0.1-0.1,0.2-0.1,0.3c-0.1,0.1-0.1,0.1-0.1,0.2c0,0.1-0.1,0.2-0.2,0.4c-0.1,0.2-0.1,0.4-0.2,0.5
		c-0.1,0.2-0.1,0.4-0.1,0.6c0,0.2,0,0.4-0.1,0.6c0,0.1-0.1,0.1-0.1,0.2c0,0.1,0,0.1-0.1,0.2c0,0.2-0.1,0.3-0.1,0.5
		c-0.1,0.2-0.1,0.3-0.1,0.5c0,0.2-0.1,0.4-0.1,0.6c0,0.2-0.1,0.4-0.2,0.6c0,0.1,0,0.1,0,0.2c0,0,0,0.1,0,0.2c0,0.1,0,0.3,0,0.4
		c0,0.1,0,0.2,0,0.4c0,0.2,0,0.4,0,0.7C204.5,40.9,204.5,41,204.5,41.1z M209.2,57L209.2,57L209.2,57L209.2,57z M212.1,57.6
		L212.1,57.6c0-0.1,0-0.1-0.1-0.1v0.1C212,57.5,212,57.6,212.1,57.6z M213.4,56L213.4,56l-0.1-0.1V56H213.4z"/>
	<g>
		<path fill="#3D3D3B" d="M49,76.6C49.1,76.6,49.1,76.6,49,76.6l0.1,6.5c0,0,0,0.1-0.1,0.1h-0.3c0,0,0,0,0,0l-3.5-4.7v4.6
			c0,0,0,0.1-0.1,0.1h-0.7c0,0-0.1,0-0.1-0.1v-6.4c0,0,0-0.1,0.1-0.1h0.3c0,0,0,0,0,0l3.5,4.7v-4.7c0,0,0-0.1,0.1-0.1H49z"/>
		<path fill="#3D3D3B" d="M54.5,76.6C54.5,76.6,54.6,76.6,54.5,76.6l2.7,6.5c0,0,0,0,0,0.1c0,0,0,0-0.1,0h-0.7c0,0,0,0-0.1,0l-1-2.5
			H53l-1,2.5c0,0,0,0-0.1,0h-0.7c0,0,0,0-0.1,0c0,0,0,0,0-0.1l2.7-6.5c0,0,0,0,0.1,0H54.5z M55,79.8l-0.8-2l-0.8,2H55z"/>
		<path fill="#3D3D3B" d="M63.1,76.6C63.2,76.6,63.2,76.6,63.1,76.6l0.1,0.8c0,0,0,0.1-0.1,0.1h-1.7v5.7c0,0,0,0.1-0.1,0.1h-0.7
			c0,0-0.1,0-0.1-0.1v-5.7h-1.7c0,0-0.1,0-0.1-0.1v-0.7c0,0,0-0.1,0.1-0.1H63.1z"/>
		<path fill="#3D3D3B" d="M69.8,76.6C69.9,76.6,69.9,76.6,69.8,76.6l0.1,4.2c0,0.6-0.2,1.2-0.7,1.6c-0.5,0.5-1,0.7-1.6,0.7
			c-0.7,0-1.2-0.2-1.7-0.7c-0.5-0.5-0.7-1-0.7-1.7v-4.1c0,0,0-0.1,0.1-0.1h0.7c0,0,0.1,0,0.1,0.1v4.1c0,0.4,0.1,0.8,0.4,1.1
			c0.3,0.3,0.6,0.5,1,0.5c0.4,0,0.8-0.1,1.1-0.4c0.3-0.3,0.5-0.7,0.5-1.1v-4.1c0,0,0-0.1,0.1-0.1H69.8z"/>
		<path fill="#3D3D3B" d="M77,83.1C77,83.1,77,83.1,77,83.1C77,83.2,77,83.2,77,83.1l-0.9,0.1c0,0,0,0-0.1,0l-1.5-2.8l0,0h-1.1v2.8
			c0,0,0,0.1-0.1,0.1h-0.7c0,0-0.1,0-0.1-0.1v-6.4c0,0,0-0.1,0.1-0.1H75c0.5,0,1,0.2,1.3,0.6c0.4,0.4,0.5,0.8,0.5,1.4
			c0,0.4-0.2,0.8-0.4,1.1c-0.3,0.3-0.6,0.5-1,0.6L77,83.1z M75,79.5c0.3,0,0.5-0.1,0.7-0.3c0.2-0.2,0.3-0.4,0.3-0.7
			c0-0.3-0.1-0.5-0.3-0.7c-0.2-0.2-0.4-0.3-0.7-0.3h-1.6v2.1H75z"/>
		<path fill="#3D3D3B" d="M81.9,76.6C82,76.6,82,76.6,81.9,76.6l2.7,6.5c0,0,0,0,0,0.1c0,0,0,0-0.1,0h-0.7c0,0,0,0-0.1,0l-1-2.5
			h-2.3l-1,2.5c0,0,0,0-0.1,0h-0.7c0,0,0,0-0.1,0c0,0,0,0,0-0.1l2.7-6.5c0,0,0,0,0.1,0H81.9z M82.5,79.8l-0.8-2l-0.8,2H82.5z"/>
		<path fill="#3D3D3B" d="M90.4,82.3C90.5,82.3,90.5,82.3,90.4,82.3l0.1,0.8c0,0,0,0.1-0.1,0.1h-3.6c0,0-0.1,0-0.1-0.1v-6.4
			c0,0,0-0.1,0.1-0.1h0.7c0,0,0.1,0,0.1,0.1v5.7H90.4z"/>
		<path fill="#3D3D3B" d="M96.9,76.6C97,76.6,97,76.6,96.9,76.6l0.1,0.8c0,0,0,0.1-0.1,0.1h-3.5v2H96c0,0,0.1,0,0.1,0.1v0.7
			c0,0,0,0.1-0.1,0.1h-2.5v2h3.5c0,0,0.1,0,0.1,0.1v0.7c0,0,0,0.1-0.1,0.1h-4.3c0,0-0.1,0-0.1-0.1v-6.4c0,0,0-0.1,0.1-0.1H96.9z"/>
		<path fill="#3D3D3B" d="M103.2,82.3C103.2,82.3,103.2,82.3,103.2,82.3l0.1,0.8c0,0,0,0.1-0.1,0.1h-4.4c0,0-0.1,0-0.1-0.1v-0.7
			c0,0,0,0,0,0l3.3-5h-3c0,0-0.1,0-0.1-0.1v-0.7c0,0,0-0.1,0.1-0.1h4c0,0,0.1,0,0.1,0.1v0.7c0,0,0,0,0,0l-3.3,5H103.2z"/>
		<path fill="#3D3D3B" d="M108.1,76.6C108.1,76.6,108.2,76.6,108.1,76.6l2.7,6.5c0,0,0,0,0,0.1c0,0,0,0-0.1,0h-0.7c0,0,0,0-0.1,0
			l-1-2.5h-2.3l-1,2.5c0,0,0,0-0.1,0h-0.7c0,0,0,0-0.1,0c0,0,0,0,0-0.1l2.7-6.5c0,0,0,0,0.1,0H108.1z M108.6,79.8l-0.8-2l-0.8,2
			H108.6z"/>
		<path fill="#3D3D3B" d="M118.3,79.4c0.1,0,0.1,0,0.1,0.1l0.1,0.1c0.1,0.1,0.2,0.1,0.3,0.1c0.2,0.1,0.4,0.3,0.6,0.4
			c0.4,0.4,0.6,0.8,0.6,1.3c0,0.6-0.2,1-0.6,1.3c-0.4,0.3-0.9,0.5-1.6,0.5c-0.5,0-0.9-0.1-1.4-0.3c-0.1-0.1-0.3-0.2-0.4-0.3
			c0,0-0.1-0.1-0.1-0.1c0,0-0.1-0.1-0.1-0.1c0,0,0-0.1,0-0.1l0.5-0.5c0,0,0.1,0,0.1,0c0,0,0,0,0.1,0.1c0,0,0.1,0,0.1,0.1
			c0.1,0.1,0.2,0.1,0.3,0.2c0.3,0.1,0.6,0.2,0.9,0.2c0.9,0,1.3-0.3,1.3-1c0-0.3-0.1-0.5-0.3-0.7c-0.2-0.2-0.5-0.3-1-0.5l0,0
			l-0.2-0.1l-0.1-0.1l-0.1-0.1c-0.1,0-0.2-0.1-0.3-0.1c-0.2-0.1-0.4-0.2-0.5-0.3c-0.4-0.3-0.6-0.7-0.6-1.2c0-0.5,0.2-0.9,0.5-1.2
			c0.3-0.3,0.8-0.4,1.4-0.4c0.4,0,0.8,0.1,1.2,0.3c0.1,0.1,0.3,0.1,0.4,0.2c0,0,0.1,0.1,0.1,0.1c0,0,0.1,0.1,0.1,0.1
			c0,0,0,0.1,0,0.1l-0.3,0.2l-0.3,0.2c0,0-0.1,0-0.1,0c0,0,0,0-0.1-0.1c0,0-0.1,0-0.1-0.1c-0.1-0.1-0.2-0.1-0.3-0.1
			c-0.3-0.1-0.5-0.2-0.8-0.2c-0.7,0-1.1,0.3-1.1,0.8c0,0.2,0.1,0.4,0.3,0.6c0.2,0.1,0.4,0.3,0.8,0.5l0,0L118.3,79.4z"/>
		<path fill="#3D3D3B" d="M123.3,76.6C123.3,76.6,123.3,76.6,123.3,76.6l0.1,6.5c0,0,0,0.1-0.1,0.1h-0.7c0,0-0.1,0-0.1-0.1v-6.4
			c0,0,0-0.1,0.1-0.1H123.3z"/>
		<path fill="#3D3D3B" d="M130.7,76.6C130.8,76.6,130.8,76.6,130.7,76.6l0.1,6.5c0,0,0,0.1-0.1,0.1h-0.3c0,0,0,0,0,0l-3.5-4.7v4.6
			c0,0,0,0.1-0.1,0.1h-0.7c0,0-0.1,0-0.1-0.1v-6.4c0,0,0-0.1,0.1-0.1h0.3c0,0,0,0,0,0l3.5,4.7v-4.7c0,0,0-0.1,0.1-0.1H130.7z"/>
		<path fill="#3D3D3B" d="M140.7,79.6c0.3,0.2,0.5,0.4,0.7,0.7c0.2,0.3,0.2,0.6,0.2,1c0,0.5-0.2,1-0.6,1.3c-0.4,0.4-0.8,0.5-1.4,0.5
			h-2.5c0,0-0.1,0-0.1-0.1v-6.4c0,0,0-0.1,0.1-0.1h2.4c0.5,0,0.9,0.2,1.2,0.5c0.3,0.3,0.5,0.7,0.5,1.2
			C141.2,78.8,141,79.2,140.7,79.6z M137.8,79.3h1.6c0.3,0,0.5-0.1,0.7-0.3c0.2-0.2,0.3-0.4,0.3-0.7c0-0.3-0.1-0.5-0.3-0.7
			c-0.2-0.2-0.4-0.3-0.7-0.3h-1.6V79.3z M139.6,82.3c0.3,0,0.6-0.1,0.8-0.3c0.2-0.2,0.3-0.5,0.3-0.8c0-0.3-0.1-0.6-0.3-0.8
			c-0.2-0.2-0.5-0.3-0.8-0.3h-1.8v2.2H139.6z"/>
		<path fill="#3D3D3B" d="M146.8,76.6C146.8,76.6,146.8,76.6,146.8,76.6l2.7,6.5c0,0,0,0,0,0.1c0,0,0,0-0.1,0h-0.7c0,0,0,0-0.1,0
			l-1-2.5h-2.3l-1,2.5c0,0,0,0-0.1,0h-0.7c0,0,0,0-0.1,0c0,0,0,0,0-0.1l2.7-6.5c0,0,0,0,0.1,0H146.8z M147.3,79.8l-0.8-2l-0.8,2
			H147.3z"/>
		<path fill="#3D3D3B" d="M153.5,79.4c0.1,0,0.1,0,0.1,0.1l0.1,0.1c0.1,0.1,0.2,0.1,0.3,0.1c0.2,0.1,0.4,0.3,0.6,0.4
			c0.4,0.4,0.6,0.8,0.6,1.3c0,0.6-0.2,1-0.6,1.3c-0.4,0.3-0.9,0.5-1.6,0.5c-0.5,0-0.9-0.1-1.4-0.3c-0.1-0.1-0.3-0.2-0.4-0.3
			c0,0-0.1-0.1-0.1-0.1c0,0-0.1-0.1-0.1-0.1c0,0,0-0.1,0-0.1l0.5-0.5c0,0,0.1,0,0.1,0c0,0,0,0,0.1,0.1c0,0,0.1,0,0.1,0.1
			c0.1,0.1,0.2,0.1,0.3,0.2c0.3,0.1,0.6,0.2,0.9,0.2c0.9,0,1.3-0.3,1.3-1c0-0.3-0.1-0.5-0.3-0.7c-0.2-0.2-0.5-0.3-1-0.5l0,0
			l-0.2-0.1l-0.1-0.1l-0.1-0.1c-0.1,0-0.2-0.1-0.3-0.1c-0.2-0.1-0.4-0.2-0.5-0.3c-0.4-0.3-0.6-0.7-0.6-1.2c0-0.5,0.2-0.9,0.5-1.2
			c0.3-0.3,0.8-0.4,1.4-0.4c0.4,0,0.8,0.1,1.2,0.3c0.1,0.1,0.3,0.1,0.4,0.2c0,0,0.1,0.1,0.1,0.1c0,0,0.1,0.1,0.1,0.1
			c0,0,0,0.1,0,0.1l-0.3,0.2l-0.3,0.2c0,0-0.1,0-0.1,0c0,0,0,0-0.1-0.1c0,0-0.1,0-0.1-0.1c-0.1-0.1-0.2-0.1-0.3-0.1
			c-0.3-0.1-0.5-0.2-0.8-0.2c-0.7,0-1.1,0.3-1.1,0.8c0,0.2,0.1,0.4,0.3,0.6c0.2,0.1,0.4,0.3,0.8,0.5l0,0L153.5,79.4z"/>
		<path fill="#3D3D3B" d="M162.2,76.6C162.3,76.6,162.3,76.6,162.2,76.6l0.1,4.2c0,0.6-0.2,1.2-0.7,1.6c-0.5,0.5-1,0.7-1.6,0.7
			c-0.7,0-1.2-0.2-1.7-0.7c-0.5-0.5-0.7-1-0.7-1.7v-4.1c0,0,0-0.1,0.1-0.1h0.7c0,0,0.1,0,0.1,0.1v4.1c0,0.4,0.1,0.8,0.4,1.1
			c0.3,0.3,0.6,0.5,1,0.5c0.4,0,0.8-0.1,1.1-0.4c0.3-0.3,0.5-0.7,0.5-1.1v-4.1c0,0,0-0.1,0.1-0.1H162.2z"/>
		<path fill="#3D3D3B" d="M169.4,83.1C169.4,83.1,169.4,83.1,169.4,83.1C169.4,83.2,169.4,83.2,169.4,83.1l-0.9,0.1c0,0,0,0-0.1,0
			l-1.5-2.8l0,0h-1.1v2.8c0,0,0,0.1-0.1,0.1h-0.7c0,0-0.1,0-0.1-0.1v-6.4c0,0,0-0.1,0.1-0.1h2.4c0.5,0,1,0.2,1.3,0.6
			c0.4,0.4,0.5,0.8,0.5,1.4c0,0.4-0.2,0.8-0.4,1.1c-0.3,0.3-0.6,0.5-1,0.6L169.4,83.1z M167.5,79.5c0.3,0,0.5-0.1,0.7-0.3
			c0.2-0.2,0.3-0.4,0.3-0.7c0-0.3-0.1-0.5-0.3-0.7c-0.2-0.2-0.4-0.3-0.7-0.3h-1.6v2.1H167.5z"/>
		<path fill="#3D3D3B" d="M174.4,76.6C174.4,76.6,174.4,76.6,174.4,76.6l2.7,6.5c0,0,0,0,0,0.1c0,0,0,0-0.1,0h-0.7c0,0,0,0-0.1,0
			l-1-2.5h-2.3l-1,2.5c0,0,0,0-0.1,0h-0.7c0,0,0,0-0.1,0c0,0,0,0,0-0.1l2.7-6.5c0,0,0,0,0.1,0H174.4z M174.9,79.8l-0.8-2l-0.8,2
			H174.9z"/>
	</g>
	<g>
		<path fill="#00A19A" d="M59.1,38.3c0,0,0.3-2.8-6.7-9.1c0,0-1.5,1.9-2.3,1.9C49.3,31.2,54.6,32.3,59.1,38.3z"/>
		<path fill="#00A19A" d="M52.4,29.2c0,0-1.2,0.2-1.6-0.6c0,0,1-0.8,1.4-0.6C52.6,28.1,52.4,29.2,52.4,29.2z"/>
		<path fill="#00A19A" d="M52.4,29.2c0,0-1.2,1.6-2.4,2c0,0-1.1,0.5-1.4,0.5c0,0-0.1,0-0.2-0.1c-0.1-0.2,0.6-1.3,0.6-1.3
			s1.1-1.4,1.8-1.7C51.5,28.4,52.4,29.2,52.4,29.2z"/>
		<path fill="#00A19A" d="M50.8,28.6c0,0-8.7-1.3-13.1,0.3c0,0,9.1,0.5,11.1,1.8L50.8,28.6z"/>
		<path fill="#00A19A" d="M49,31.6l-1.9,5.3c0,0,1-3.8,0.9-4c0-0.2-0.3-0.5-0.6-0.5c-0.3,0-4.9,2.3-4.9,2.3l6.1-3.4L49,31.6z"/>
	</g>
</g>
<g>
</g>
<g>
</g>
<g>
</g>
<g>
</g>
<g>
</g>
<g>
</g>
</svg>
